<svg viewBox="0 1.90735e-06 1202.5 479.924" xmlns="http://www.w3.org/2000/svg" xmlns:xlink="http://www.w3.org/1999/xlink" id="diagram-8" fill="#333333" font-family="trebuchet ms,verdana,arial,Arial" font-size="16" overflow="hidden"><defs><filter id="diagram-8-drop-shadow" x="-10%" y="-10%" width="130%" height="130%" filterUnits="objectBoundingBox" primitiveUnits="userSpaceOnUse"></filter></defs><defs><filter id="diagram-8-drop-shadow-small" x="-10%" y="-10%" width="150%" height="150%" filterUnits="objectBoundingBox" primitiveUnits="userSpaceOnUse"></filter></defs><g><marker refX="5" refY="5" markerWidth="8" markerHeight="8" orient="auto" viewBox="0 0 10 10" id="diagram-8_flowchart-v2-pointEnd" stroke="#333333" overflow="hidden"><path d="M0 0 10 5 0 10Z" stroke-dasharray="1 0"/></marker><marker refX="4.5" refY="5" markerWidth="8" markerHeight="8" orient="auto" viewBox="0 0 10 10" id="diagram-8_flowchart-v2-pointStart" stroke="#333333" overflow="hidden"><path d="M0 5 10 10 10 0Z" stroke-dasharray="1 0"/></marker><marker refX="11.5" refY="7" markerWidth="10.5" markerHeight="14" orient="auto" viewBox="0 0 11.5 14" id="diagram-8_flowchart-v2-pointEnd-margin" stroke="#333333" overflow="hidden"><path d="M0 0 11.5 7 0 14Z" stroke-width="0" stroke-dasharray="1 0"/></marker><marker refX="1" refY="7" markerWidth="11.5" markerHeight="14" orient="auto" viewBox="0 0 11.5 14" id="diagram-8_flowchart-v2-pointStart-margin" stroke="#333333" overflow="hidden"><path d="M0 7 11.5 14 11.5 0Z" stroke-width="0" stroke-dasharray="1 0"/></marker><marker refX="11" refY="5" markerWidth="11" markerHeight="11" orient="auto" viewBox="0 0 10 10" id="diagram-8_flowchart-v2-circleEnd" stroke="#333333" overflow="hidden"><circle cx="5" cy="5" r="5" stroke-dasharray="1 0"/></marker><marker refX="-1" refY="5" markerWidth="11" markerHeight="11" orient="auto" viewBox="0 0 10 10" id="diagram-8_flowchart-v2-circleStart" stroke="#333333" overflow="hidden"><circle cx="5" cy="5" r="5" stroke-dasharray="1 0"/></marker><marker refX="12.25" refY="5" markerWidth="14" markerHeight="14" orient="auto" viewBox="0 0 10 10" id="diagram-8_flowchart-v2-circleEnd-margin" stroke="#333333" overflow="hidden"><circle cx="5" cy="5" r="5" stroke-width="0" stroke-dasharray="1 0"/></marker><marker refX="-2" refY="5" markerWidth="14" markerHeight="14" orient="auto" viewBox="0 0 10 10" id="diagram-8_flowchart-v2-circleStart-margin" stroke="#333333" overflow="hidden"><circle cx="5" cy="5" r="5" stroke-width="0" stroke-dasharray="1 0"/></marker><marker refX="12" refY="5.2" markerWidth="11" markerHeight="11" orient="auto" viewBox="0 0 11 11" id="diagram-8_flowchart-v2-crossEnd" stroke="#333333" overflow="hidden"><path d="M1 1 10 10M10 1 1 10" stroke-width="2" stroke-dasharray="1 0"/></marker><marker refX="-1" refY="5.2" markerWidth="11" markerHeight="11" orient="auto" viewBox="0 0 11 11" id="diagram-8_flowchart-v2-crossStart" stroke="#333333" overflow="hidden"><path d="M1 1 10 10M10 1 1 10" stroke-width="2" stroke-dasharray="1 0"/></marker><marker refX="17.7" refY="7.5" markerWidth="12" markerHeight="12" orient="auto" viewBox="0 0 15 15" id="diagram-8_flowchart-v2-crossEnd-margin" stroke="#333333" overflow="hidden"><path d="M1 1 14 14M1 14 14 1" stroke-width="2.5"/></marker><marker refX="-3.5" refY="7.5" markerWidth="12" markerHeight="12" orient="auto" viewBox="0 0 15 15" id="diagram-8_flowchart-v2-crossStart-margin" stroke="#333333" overflow="hidden"><path d="M1 1 14 14M1 14 14 1" stroke-width="2.5" stroke-dasharray="1 0"/></marker><g><g></g><g><path d="M513.5 57.333 513.5 61.5C513.5 65.667 513.5 74 513.5 81.667 513.5 89.333 513.5 96.333 513.5 99.833L513.5 103.333" id="diagram-8-L_User_UI_0" stroke="#333333" stroke-dasharray="0" fill="none" marker-end="url(#diagram-8_flowchart-v2-pointEnd)"/><path d="M464.415 156.667 456.124 160.833C447.832 165 431.249 173.333 422.958 181 414.667 188.667 414.667 195.667 414.667 199.167L414.667 202.667" id="diagram-8-L_UI_API_0" stroke="#333333" stroke-dasharray="0" fill="none" marker-end="url(#diagram-8_flowchart-v2-pointEnd)"/><path d="M325.667 245.118 287.056 251.098C248.444 257.079 171.222 269.039 132.611 279.958 94 290.876 94 300.752 94 305.69L94 310.628" id="diagram-8-L_API_Auth_0" stroke="#333333" stroke-dasharray="0" fill="none" marker-end="url(#diagram-8_flowchart-v2-pointEnd)"/><path d="M364.34 256 355.839 260.167C347.338 264.333 330.336 272.667 321.834 281.771 313.333 290.876 313.333 300.752 313.333 305.69L313.333 310.628" id="diagram-8-L_API_K8s_0" stroke="#333333" stroke-dasharray="0" fill="none" marker-end="url(#diagram-8_flowchart-v2-pointEnd)"/><path d="M420.295 256 421.246 260.167C422.197 264.333 424.098 272.667 433.394 282.083 442.69 291.499 459.38 301.999 467.725 307.249L476.07 312.498" id="diagram-8-L_API_Prometheus_0" stroke="#333333" stroke-dasharray="0" fill="none" marker-end="url(#diagram-8_flowchart-v2-pointEnd)"/><path d="M503.667 239.272 581.639 246.226C659.611 253.181 815.556 267.091 893.528 278.983 971.5 290.876 971.5 300.752 971.5 305.69L971.5 310.628" id="diagram-8-L_API_Alertmanager_0" stroke="#333333" stroke-dasharray="0" fill="none" marker-end="url(#diagram-8_flowchart-v2-pointEnd)"/><path d="M503.667 237.367 610.944 244.639C718.222 251.911 932.778 266.456 1040.06 277.228 1147.33 288 1147.33 295 1147.33 298.5L1147.33 302" id="diagram-8-L_API_DB_0" stroke="#333333" stroke-dasharray="0" fill="none" marker-end="url(#diagram-8_flowchart-v2-pointEnd)"/><path d="M446.667 357.168 419.528 363.905C392.389 370.642 338.111 384.116 310.972 394.353 283.833 404.59 283.833 411.59 283.833 415.09L283.833 418.59" id="diagram-8-L_Prometheus_KSM_0" stroke="#333333" stroke-dasharray="0" fill="none" marker-end="url(#diagram-8_flowchart-v2-pointEnd)"/><path d="M516.48 363.962 515.984 369.566C515.487 375.171 514.493 386.381 513.997 395.485 513.5 404.59 513.5 411.59 513.5 415.09L513.5 418.59" id="diagram-8-L_Prometheus_NodeExporter_0" stroke="#333333" stroke-dasharray="0" fill="none" marker-end="url(#diagram-8_flowchart-v2-pointEnd)"/><path d="M590.667 359.988 612.472 366.255C634.278 372.522 677.889 385.056 699.694 394.823 721.5 404.59 721.5 411.59 721.5 415.09L721.5 418.59" id="diagram-8-L_Prometheus_AppMetrics_0" stroke="#333333" stroke-dasharray="0" fill="none" marker-end="url(#diagram-8_flowchart-v2-pointEnd)"/><path d="M940.047 363.962 932.9 369.566C925.754 375.171 911.46 386.381 904.313 395.485 897.167 404.59 897.167 411.59 897.167 415.09L897.167 418.59" id="diagram-8-L_Alertmanager_Slack_0" stroke="#333333" stroke-dasharray="0" fill="none" marker-end="url(#diagram-8_flowchart-v2-pointEnd)"/><path d="M1002.95 363.962 1010.1 369.566C1017.25 375.171 1031.54 386.381 1038.69 395.485 1045.83 404.59 1045.83 411.59 1045.83 415.09L1045.83 418.59" id="diagram-8-L_Alertmanager_Email_0" stroke="#333333" stroke-dasharray="0" fill="none" marker-end="url(#diagram-8_flowchart-v2-pointEnd)"/><path d="M990.75 239.684 942.375 246.57C894 253.456 797.25 267.228 731.204 279.779 665.159 292.33 629.817 303.661 612.146 309.326L594.476 314.991" id="diagram-8-L_Grafana_Prometheus_0" stroke="#333333" stroke-dasharray="0" fill="none" marker-end="url(#diagram-8_flowchart-v2-pointEnd)"/><path d="M603.5 140.341 677.819 147.228C752.139 154.116 900.778 167.891 975.097 178.279 1049.42 188.667 1049.42 195.667 1049.42 199.167L1049.42 202.667" id="diagram-8-L_UI_Grafana_0" stroke="#333333" stroke-dasharray="0" fill="none" marker-end="url(#diagram-8_flowchart-v2-pointEnd)"/></g><g><g><g color="#333333"><text text-anchor="middle" y="-10.1"><tspan x="0" y="-0.1em" dy="1.1em"></tspan></text></g></g><g><rect x="0" y="0" width="0" height="0"/></g><g><g color="#333333"><text text-anchor="middle" y="-10.1"><tspan x="0" y="-0.1em" dy="1.1em"></tspan></text></g></g><g><rect x="0" y="0" width="0" height="0"/></g><g><g color="#333333"><text text-anchor="middle" y="-10.1"><tspan x="0" y="-0.1em" dy="1.1em"></tspan></text></g></g><g><rect x="0" y="0" width="0" height="0"/></g><g><g color="#333333"><text text-anchor="middle" y="-10.1"><tspan x="0" y="-0.1em" dy="1.1em"></tspan></text></g></g><g><rect x="0" y="0" width="0" height="0"/></g><g><g color="#333333"><text text-anchor="middle" y="-10.1"><tspan x="0" y="-0.1em" dy="1.1em"></tspan></text></g></g><g><rect x="0" y="0" width="0" height="0"/></g><g><g color="#333333"><text text-anchor="middle" y="-10.1"><tspan x="0" y="-0.1em" dy="1.1em"></tspan></text></g></g><g><rect x="0" y="0" width="0" height="0"/></g><g><g color="#333333"><text text-anchor="middle" y="-10.1"><tspan x="0" y="-0.1em" dy="1.1em"></tspan></text></g></g><g><rect x="0" y="0" width="0" height="0"/></g><g><g color="#333333"><text text-anchor="middle" y="-10.1"><tspan x="0" y="-0.1em" dy="1.1em"></tspan></text></g></g><g><rect x="0" y="0" width="0" height="0"/></g><g><g color="#333333"><text text-anchor="middle" y="-10.1"><tspan x="0" y="-0.1em" dy="1.1em"></tspan></text></g></g><g><rect x="0" y="0" width="0" height="0"/></g><g><g color="#333333"><text text-anchor="middle" y="-10.1"><tspan x="0" y="-0.1em" dy="1.1em"></tspan></text></g></g><g><rect x="0" y="0" width="0" height="0"/></g><g><g color="#333333"><text text-anchor="middle" y="-10.1"><tspan x="0" y="-0.1em" dy="1.1em"></tspan></text></g></g><g><rect x="0" y="0" width="0" height="0"/></g><g><g color="#333333"><text text-anchor="middle" y="-10.1"><tspan x="0" y="-0.1em" dy="1.1em"></tspan></text></g></g><g><rect x="0" y="0" width="0" height="0"/></g><g><g color="#333333"><text text-anchor="middle" y="-10.1"><tspan x="0" y="-0.1em" dy="1.1em"></tspan></text></g></g><g><rect x="0" y="0" width="0" height="0"/></g><g><g color="#333333"><text text-anchor="middle" y="-10.1"><tspan x="0" y="-0.1em" dy="1.1em"></tspan></text></g></g><g><rect x="0" y="0" width="0" height="0"/></g></g><g><g id="diagram-8-flowchart-User-0" transform="translate(513.5 32.6667)"><rect x="-46" y="-24.6667" width="92" height="49.3333" stroke="#9370DB" fill="#ECECFF"/><g color="#333333" transform="matrix(1 0 0 1 0 -9.66667)"><rect x="0" y="0" width="0" height="0" stroke="#9370DB" fill="#ECECFF"/><g><rect x="0" y="0" width="0" height="0" fill="#ECECFF"/><text text-anchor="middle" y="-10.1"><tspan x="0" y="-0.1em" dy="1.1em"><tspan font-weight="400">User</tspan></tspan></text></g></g></g><g id="diagram-8-flowchart-UI-1" transform="translate(513.5 132)"><rect x="-90" y="-24.6667" width="180" height="49.3333" stroke="#9370DB" fill="#ECECFF"/><g color="#333333" transform="matrix(1 0 0 1 0 -9.66667)"><rect x="0" y="0" width="0" height="0" stroke="#9370DB" fill="#ECECFF"/><g><rect x="0" y="0" width="0" height="0" fill="#ECECFF"/><text text-anchor="middle" y="-10.1"><tspan x="0" y="-0.1em" dy="1.1em"><tspan font-weight="400">React</tspan><tspan font-weight="400"> Dashboard</tspan></tspan></text></g></g></g><g id="diagram-8-flowchart-API-3" transform="translate(414.667 231.333)"><rect x="-89" y="-24.6667" width="178" height="49.3333" stroke="#9370DB" fill="#ECECFF"/><g color="#333333" transform="matrix(1 0 0 1 0 -9.66667)"><rect x="0" y="0" width="0" height="0" stroke="#9370DB" fill="#ECECFF"/><g><rect x="0" y="0" width="0" height="0" fill="#ECECFF"/><text text-anchor="middle" y="-10.1"><tspan x="0" y="-0.1em" dy="1.1em"><tspan font-weight="400">FastAPI</tspan><tspan font-weight="400"> Backend</tspan></tspan></text></g></g></g><g id="diagram-8-flowchart-Auth-5" transform="translate(94 339.295)"><rect x="-86" y="-24.6667" width="172" height="49.3333" stroke="#9370DB" fill="#ECECFF"/><g color="#333333" transform="matrix(1 0 0 1 0 -9.66667)"><rect x="0" y="0" width="0" height="0" stroke="#9370DB" fill="#ECECFF"/><g><rect x="0" y="0" width="0" height="0" fill="#ECECFF"/><text text-anchor="middle" y="-10.1"><tspan x="0" y="-0.1em" dy="1.1em"><tspan font-weight="400">LDAP/JWT</tspan><tspan font-weight="400"> Auth</tspan></tspan></text></g></g></g><g id="diagram-8-flowchart-K8s-7" transform="translate(313.333 339.295)"><rect x="-83.3333" y="-24.6667" width="166.667" height="49.3333" stroke="#9370DB" fill="#ECECFF"/><g color="#333333" transform="matrix(1 0 0 1 0 -9.66667)"><rect x="0" y="0" width="0" height="0" stroke="#9370DB" fill="#ECECFF"/><g><rect x="0" y="0" width="0" height="0" fill="#ECECFF"/><text text-anchor="middle" y="-10.1"><tspan x="0" y="-0.1em" dy="1.1em"><tspan font-weight="400">Kubernetes</tspan><tspan font-weight="400"> API</tspan></tspan></text></g></g></g><g id="diagram-8-flowchart-Prometheus-9" transform="translate(518.667 339.295)"><rect x="-72" y="-24.6667" width="144" height="49.3333" stroke="#9370DB" fill="#ECECFF"/><g color="#333333" transform="matrix(1 0 0 1 0 -9.66667)"><rect x="0" y="0" width="0" height="0" stroke="#9370DB" fill="#ECECFF"/><g><rect x="0" y="0" width="0" height="0" fill="#ECECFF"/><text text-anchor="middle" y="-10.1"><tspan x="0" y="-0.1em" dy="1.1em"><tspan font-weight="400">Prometheus</tspan></tspan></text></g></g></g><g id="diagram-8-flowchart-Alertmanager-11" transform="translate(971.5 339.295)"><rect x="-78.6667" y="-24.6667" width="157.333" height="49.3333" stroke="#9370DB" fill="#ECECFF"/><g color="#333333" transform="matrix(1 0 0 1 0 -9.66667)"><rect x="0" y="0" width="0" height="0" stroke="#9370DB" fill="#ECECFF"/><g><rect x="0" y="0" width="0" height="0" fill="#ECECFF"/><text text-anchor="middle" y="-10.1"><tspan x="0" y="-0.1em" dy="1.1em"><tspan font-weight="400">Alertmanager</tspan></tspan></text></g></g></g><g id="diagram-8-flowchart-DB-13" transform="translate(1147.33 339.295)"><path d="M0 10.7523C0 16.6906 21.1172 21.5046 47.1667 21.5046 73.2161 21.5046 94.3333 16.6906 94.3333 10.7523 94.3333 4.81396 73.2161 4.34832e-07 47.1667 4.34832e-07 21.1172 4.34832e-07-7.10543e-15 4.81396-7.10543e-15 10.7523L0 55.8379C0 61.7762 21.1172 66.5902 47.1667 66.5902 73.2161 66.5902 94.3333 61.7762 94.3333 55.8379L94.3333 10.7523" stroke="#9370DB" fill="#ECECFF" transform="translate(-47.1667 -33.2951)"/><g color="#333333" transform="matrix(1 0 0 1 0 -0.333335)"><rect x="0" y="0" width="0" height="0" stroke="#9370DB" fill="#ECECFF"/><g><rect x="0" y="0" width="0" height="0" fill="#ECECFF"/><text text-anchor="middle" y="-10.1"><tspan x="0" y="-0.1em" dy="1.1em"><tspan font-weight="400">PostgreSQL</tspan></tspan></text></g></g></g><g id="diagram-8-flowchart-KSM-15" transform="translate(283.833 447.257)"><rect x="-98.6667" y="-24.6667" width="197.333" height="49.3333" stroke="#9370DB" fill="#ECECFF"/><g color="#333333" transform="matrix(1 0 0 1 0 -9.66667)"><rect x="0" y="0" width="0" height="0" stroke="#9370DB" fill="#ECECFF"/><g><rect x="0" y="0" width="0" height="0" fill="#ECECFF"/><text text-anchor="middle" y="-10.1"><tspan x="0" y="-0.1em" dy="1.1em"><tspan font-weight="400">kube-state-metrics</tspan></tspan></text></g></g></g><g id="diagram-8-flowchart-NodeExporter-17" transform="translate(513.5 447.257)"><rect x="-81" y="-24.6667" width="162" height="49.3333" stroke="#9370DB" fill="#ECECFF"/><g color="#333333" transform="matrix(1 0 0 1 0 -9.66667)"><rect x="0" y="0" width="0" height="0" stroke="#9370DB" fill="#ECECFF"/><g><rect x="0" y="0" width="0" height="0" fill="#ECECFF"/><text text-anchor="middle" y="-10.1"><tspan x="0" y="-0.1em" dy="1.1em"><tspan font-weight="400">Node</tspan><tspan font-weight="400"> Exporter</tspan></tspan></text></g></g></g><g id="diagram-8-flowchart-AppMetrics-19" transform="translate(721.5 447.257)"><rect x="-77" y="-24.6667" width="154" height="49.3333" stroke="#9370DB" fill="#ECECFF"/><g color="#333333" transform="matrix(1 0 0 1 0 -9.66667)"><rect x="0" y="0" width="0" height="0" stroke="#9370DB" fill="#ECECFF"/><g><rect x="0" y="0" width="0" height="0" fill="#ECECFF"/><text text-anchor="middle" y="-10.1"><tspan x="0" y="-0.1em" dy="1.1em"><tspan font-weight="400">App</tspan><tspan font-weight="400"> /metrics</tspan></tspan></text></g></g></g><g id="diagram-8-flowchart-Slack-21" transform="translate(897.167 447.257)"><rect x="-48.6667" y="-24.6667" width="97.3333" height="49.3333" stroke="#9370DB" fill="#ECECFF"/><g color="#333333" transform="matrix(1 0 0 1 0 -9.66667)"><rect x="0" y="0" width="0" height="0" stroke="#9370DB" fill="#ECECFF"/><g><rect x="0" y="0" width="0" height="0" fill="#ECECFF"/><text text-anchor="middle" y="-10.1"><tspan x="0" y="-0.1em" dy="1.1em"><tspan font-weight="400">Slack</tspan></tspan></text></g></g></g><g id="diagram-8-flowchart-Email-23" transform="translate(1045.83 447.257)"><rect x="-50" y="-24.6667" width="100" height="49.3333" stroke="#9370DB" fill="#ECECFF"/><g color="#333333" transform="matrix(1 0 0 1 0 -9.66667)"><rect x="0" y="0" width="0" height="0" stroke="#9370DB" fill="#ECECFF"/><g><rect x="0" y="0" width="0" height="0" fill="#ECECFF"/><text text-anchor="middle" y="-10.1"><tspan x="0" y="-0.1em" dy="1.1em"><tspan font-weight="400">Email</tspan></tspan></text></g></g></g><g id="diagram-8-flowchart-Grafana-24" transform="translate(1049.42 231.333)"><rect x="-58.6667" y="-24.6667" width="117.333" height="49.3333" stroke="#9370DB" fill="#ECECFF"/><g color="#333333" transform="matrix(1 0 0 1 0 -9.66667)"><rect x="0" y="0" width="0" height="0" stroke="#9370DB" fill="#ECECFF"/><g><rect x="0" y="0" width="0" height="0" fill="#ECECFF"/><text text-anchor="middle" y="-10.1"><tspan x="0" y="-0.1em" dy="1.1em"><tspan font-weight="400">Grafana</tspan></tspan></text></g></g></g></g></g></g><g><text fill="#9CA3AF" font-family="Inter,-apple-system,BlinkMacSystemFont,Arial" font-size="11" text-anchor="end" opacity="0.6" x="1192.5" y="469.924">SimpleMermaid.com</text></g></svg>