<svg viewBox="0 1.90735e-06 1007.33 479.924" xmlns="http://www.w3.org/2000/svg" xmlns:xlink="http://www.w3.org/1999/xlink" id="diagram-7" fill="#333333" font-family="trebuchet ms,verdana,arial,Arial" font-size="16" overflow="hidden"><defs><filter id="diagram-7-drop-shadow" x="-10%" y="-10%" width="130%" height="130%" filterUnits="objectBoundingBox" primitiveUnits="userSpaceOnUse"></filter></defs><defs><filter id="diagram-7-drop-shadow-small" x="-10%" y="-10%" width="150%" height="150%" filterUnits="objectBoundingBox" primitiveUnits="userSpaceOnUse"></filter></defs><g><marker refX="5" refY="5" markerWidth="8" markerHeight="8" orient="auto" viewBox="0 0 10 10" id="diagram-7_flowchart-v2-pointEnd" stroke="#333333" overflow="hidden"><path d="M0 0 10 5 0 10Z" stroke-dasharray="1 0"/></marker><marker refX="4.5" refY="5" markerWidth="8" markerHeight="8" orient="auto" viewBox="0 0 10 10" id="diagram-7_flowchart-v2-pointStart" stroke="#333333" overflow="hidden"><path d="M0 5 10 10 10 0Z" stroke-dasharray="1 0"/></marker><marker refX="11.5" refY="7" markerWidth="10.5" markerHeight="14" orient="auto" viewBox="0 0 11.5 14" id="diagram-7_flowchart-v2-pointEnd-margin" stroke="#333333" overflow="hidden"><path d="M0 0 11.5 7 0 14Z" stroke-width="0" stroke-dasharray="1 0"/></marker><marker refX="1" refY="7" markerWidth="11.5" markerHeight="14" orient="auto" viewBox="0 0 11.5 14" id="diagram-7_flowchart-v2-pointStart-margin" stroke="#333333" overflow="hidden"><path d="M0 7 11.5 14 11.5 0Z" stroke-width="0" stroke-dasharray="1 0"/></marker><marker refX="11" refY="5" markerWidth="11" markerHeight="11" orient="auto" viewBox="0 0 10 10" id="diagram-7_flowchart-v2-circleEnd" stroke="#333333" overflow="hidden"><circle cx="5" cy="5" r="5" stroke-dasharray="1 0"/></marker><marker refX="-1" refY="5" markerWidth="11" markerHeight="11" orient="auto" viewBox="0 0 10 10" id="diagram-7_flowchart-v2-circleStart" stroke="#333333" overflow="hidden"><circle cx="5" cy="5" r="5" stroke-dasharray="1 0"/></marker><marker refX="12.25" refY="5" markerWidth="14" markerHeight="14" orient="auto" viewBox="0 0 10 10" id="diagram-7_flowchart-v2-circleEnd-margin" stroke="#333333" overflow="hidden"><circle cx="5" cy="5" r="5" stroke-width="0" stroke-dasharray="1 0"/></marker><marker refX="-2" refY="5" markerWidth="14" markerHeight="14" orient="auto" viewBox="0 0 10 10" id="diagram-7_flowchart-v2-circleStart-margin" stroke="#333333" overflow="hidden"><circle cx="5" cy="5" r="5" stroke-width="0" stroke-dasharray="1 0"/></marker><marker refX="12" refY="5.2" markerWidth="11" markerHeight="11" orient="auto" viewBox="0 0 11 11" id="diagram-7_flowchart-v2-crossEnd" stroke="#333333" overflow="hidden"><path d="M1 1 10 10M10 1 1 10" stroke-width="2" stroke-dasharray="1 0"/></marker><marker refX="-1" refY="5.2" markerWidth="11" markerHeight="11" orient="auto" viewBox="0 0 11 11" id="diagram-7_flowchart-v2-crossStart" stroke="#333333" overflow="hidden"><path d="M1 1 10 10M10 1 1 10" stroke-width="2" stroke-dasharray="1 0"/></marker><marker refX="17.7" refY="7.5" markerWidth="12" markerHeight="12" orient="auto" viewBox="0 0 15 15" id="diagram-7_flowchart-v2-crossEnd-margin" stroke="#333333" overflow="hidden"><path d="M1 1 14 14M1 14 14 1" stroke-width="2.5"/></marker><marker refX="-3.5" refY="7.5" markerWidth="12" markerHeight="12" orient="auto" viewBox="0 0 15 15" id="diagram-7_flowchart-v2-crossStart-margin" stroke="#333333" overflow="hidden"><path d="M1 1 14 14M1 14 14 1" stroke-width="2.5" stroke-dasharray="1 0"/></marker><g><g></g><g><path d="M181.657 57.333 171.492 61.5C161.327 65.667 140.997 74 130.832 81.667 120.667 89.333 120.667 96.333 120.667 99.833L120.667 103.333" id="diagram-7-L_Ingress_Frontend_0" stroke="#333333" stroke-dasharray="0" fill="none" marker-end="url(#diagram-7_flowchart-v2-pointEnd)"/><path d="M302.01 57.333 312.175 61.5C322.34 65.667 342.67 74 352.835 81.667 363 89.333 363 96.333 363 99.833L363 103.333" id="diagram-7-L_Ingress_Backend_0" stroke="#333333" stroke-dasharray="0" fill="none" marker-end="url(#diagram-7_flowchart-v2-pointEnd)"/><path d="M261.333 148.403 226.972 153.947C192.611 159.491 123.889 170.579 89.528 179.623 55.167 188.667 55.167 195.667 55.167 199.167L55.167 202.667" id="diagram-7-L_Backend_Postgres_0" stroke="#333333" stroke-dasharray="0" fill="none" marker-end="url(#diagram-7_flowchart-v2-pointEnd)"/><path d="M271.369 156.667 255.891 160.833C240.413 165 209.456 173.333 193.978 181.844 178.5 190.355 178.5 199.043 178.5 203.387L178.5 207.731" id="diagram-7-L_Backend_Redis_0" stroke="#333333" stroke-dasharray="0" fill="none" marker-end="url(#diagram-7_flowchart-v2-pointEnd)"/><path d="M363 156.667 363 160.833C363 165 363 173.333 363 182.438 363 191.543 363 201.419 363 206.357L363 211.295" id="diagram-7-L_Backend_K8sAPI_0" stroke="#333333" stroke-dasharray="0" fill="none" marker-end="url(#diagram-7_flowchart-v2-pointEnd)"/><path d="M464.667 153.922 486.111 158.546C507.556 163.17 550.444 172.419 571.889 181.981 593.333 191.543 593.333 201.419 593.333 206.357L593.333 211.295" id="diagram-7-L_Backend_Prometheus_0" stroke="#333333" stroke-dasharray="0" fill="none" marker-end="url(#diagram-7_flowchart-v2-pointEnd)"/><path d="M464.667 141.862 533.056 148.496C601.444 155.13 738.222 168.399 806.611 179.971 875 191.543 875 201.419 875 206.357L875 211.295" id="diagram-7-L_Backend_Alertmanager_0" stroke="#333333" stroke-dasharray="0" fill="none" marker-end="url(#diagram-7_flowchart-v2-pointEnd)"/><path d="M556.803 264.628 548.502 270.233C540.202 275.838 523.601 287.047 515.3 296.152 507 305.257 507 312.257 507 315.757L507 319.257" id="diagram-7-L_Prometheus_Grafana_0" stroke="#333333" stroke-dasharray="0" fill="none" marker-end="url(#diagram-7_flowchart-v2-pointEnd)"/><path d="M629.864 264.628 638.164 270.233C646.465 275.838 663.066 287.047 671.366 296.152 679.667 305.257 679.667 312.257 679.667 315.757L679.667 319.257" id="diagram-7-L_Prometheus_Exporters_0" stroke="#333333" stroke-dasharray="0" fill="none" marker-end="url(#diagram-7_flowchart-v2-pointEnd)"/><path d="M875 264.628 875 270.233C875 275.838 875 287.047 875 296.152 875 305.257 875 312.257 875 315.757L875 319.257" id="diagram-7-L_Alertmanager_AlertService_0" stroke="#333333" stroke-dasharray="0" fill="none" marker-end="url(#diagram-7_flowchart-v2-pointEnd)"/><path d="M838.083 372.59 831.847 376.757C825.611 380.923 813.139 389.257 806.903 396.923 800.667 404.59 800.667 411.59 800.667 415.09L800.667 418.59" id="diagram-7-L_AlertService_Slack_0" stroke="#333333" stroke-dasharray="0" fill="none" marker-end="url(#diagram-7_flowchart-v2-pointEnd)"/><path d="M911.917 372.59 918.153 376.757C924.389 380.923 936.861 389.257 943.097 396.923 949.333 404.59 949.333 411.59 949.333 415.09L949.333 418.59" id="diagram-7-L_AlertService_Email_0" stroke="#333333" stroke-dasharray="0" fill="none" marker-end="url(#diagram-7_flowchart-v2-pointEnd)"/></g><g><g><g color="#333333"><text text-anchor="middle" y="-10.1"><tspan x="0" y="-0.1em" dy="1.1em"></tspan></text></g></g><g><rect x="0" y="0" width="0" height="0"/></g><g><g color="#333333"><text text-anchor="middle" y="-10.1"><tspan x="0" y="-0.1em" dy="1.1em"></tspan></text></g></g><g><rect x="0" y="0" width="0" height="0"/></g><g><g color="#333333"><text text-anchor="middle" y="-10.1"><tspan x="0" y="-0.1em" dy="1.1em"></tspan></text></g></g><g><rect x="0" y="0" width="0" height="0"/></g><g><g color="#333333"><text text-anchor="middle" y="-10.1"><tspan x="0" y="-0.1em" dy="1.1em"></tspan></text></g></g><g><rect x="0" y="0" width="0" height="0"/></g><g><g color="#333333"><text text-anchor="middle" y="-10.1"><tspan x="0" y="-0.1em" dy="1.1em"></tspan></text></g></g><g><rect x="0" y="0" width="0" height="0"/></g><g><g color="#333333"><text text-anchor="middle" y="-10.1"><tspan x="0" y="-0.1em" dy="1.1em"></tspan></text></g></g><g><rect x="0" y="0" width="0" height="0"/></g><g><g color="#333333"><text text-anchor="middle" y="-10.1"><tspan x="0" y="-0.1em" dy="1.1em"></tspan></text></g></g><g><rect x="0" y="0" width="0" height="0"/></g><g><g color="#333333"><text text-anchor="middle" y="-10.1"><tspan x="0" y="-0.1em" dy="1.1em"></tspan></text></g></g><g><rect x="0" y="0" width="0" height="0"/></g><g><g color="#333333"><text text-anchor="middle" y="-10.1"><tspan x="0" y="-0.1em" dy="1.1em"></tspan></text></g></g><g><rect x="0" y="0" width="0" height="0"/></g><g><g color="#333333"><text text-anchor="middle" y="-10.1"><tspan x="0" y="-0.1em" dy="1.1em"></tspan></text></g></g><g><rect x="0" y="0" width="0" height="0"/></g><g><g color="#333333"><text text-anchor="middle" y="-10.1"><tspan x="0" y="-0.1em" dy="1.1em"></tspan></text></g></g><g><rect x="0" y="0" width="0" height="0"/></g><g><g color="#333333"><text text-anchor="middle" y="-10.1"><tspan x="0" y="-0.1em" dy="1.1em"></tspan></text></g></g><g><rect x="0" y="0" width="0" height="0"/></g></g><g><g id="diagram-7-flowchart-Ingress-0" transform="translate(241.833 32.6667)"><rect x="-93" y="-24.6667" width="186" height="49.3333" stroke="#9370DB" fill="#ECECFF"/><g color="#333333" transform="matrix(1 0 0 1 0 -9.66667)"><rect x="0" y="0" width="0" height="0" stroke="#9370DB" fill="#ECECFF"/><g><rect x="0" y="0" width="0" height="0" fill="#ECECFF"/><text text-anchor="middle" y="-10.1"><tspan x="0" y="-0.1em" dy="1.1em"><tspan font-weight="400">Ingress</tspan><tspan font-weight="400"> Controller</tspan></tspan></text></g></g></g><g id="diagram-7-flowchart-Frontend-1" transform="translate(120.667 132)"><rect x="-90.6667" y="-24.6667" width="181.333" height="49.3333" stroke="#9370DB" fill="#ECECFF"/><g color="#333333" transform="matrix(1 0 0 1 0 -9.66667)"><rect x="0" y="0" width="0" height="0" stroke="#9370DB" fill="#ECECFF"/><g><rect x="0" y="0" width="0" height="0" fill="#ECECFF"/><text text-anchor="middle" y="-10.1"><tspan x="0" y="-0.1em" dy="1.1em"><tspan font-weight="400">Frontend</tspan><tspan font-weight="400"> Service</tspan></tspan></text></g></g></g><g id="diagram-7-flowchart-Backend-3" transform="translate(363 132)"><rect x="-101.667" y="-24.6667" width="203.333" height="49.3333" stroke="#9370DB" fill="#ECECFF"/><g color="#333333" transform="matrix(1 0 0 1 0 -9.66667)"><rect x="0" y="0" width="0" height="0" stroke="#9370DB" fill="#ECECFF"/><g><rect x="0" y="0" width="0" height="0" fill="#ECECFF"/><text text-anchor="middle" y="-10.1"><tspan x="0" y="-0.1em" dy="1.1em"><tspan font-weight="400">Backend</tspan><tspan font-weight="400"> API</tspan><tspan font-weight="400"> Service</tspan></tspan></text></g></g></g><g id="diagram-7-flowchart-Postgres-5" transform="translate(55.1667 239.962)"><path d="M0 10.7523C0 16.6906 21.1172 21.5046 47.1667 21.5046 73.2161 21.5046 94.3333 16.6906 94.3333 10.7523 94.3333 4.81396 73.2161 4.34832e-07 47.1667 4.34832e-07 21.1172 4.34832e-07-7.10543e-15 4.81396-7.10543e-15 10.7523L0 55.8379C0 61.7762 21.1172 66.5902 47.1667 66.5902 73.2161 66.5902 94.3333 61.7762 94.3333 55.8379L94.3333 10.7523" stroke="#9370DB" fill="#ECECFF" transform="translate(-47.1667 -33.2951)"/><g color="#333333" transform="matrix(1 0 0 1 0 -0.333335)"><rect x="0" y="0" width="0" height="0" stroke="#9370DB" fill="#ECECFF"/><g><rect x="0" y="0" width="0" height="0" fill="#ECECFF"/><text text-anchor="middle" y="-10.1"><tspan x="0" y="-0.1em" dy="1.1em"><tspan font-weight="400">PostgreSQL</tspan></tspan></text></g></g></g><g id="diagram-7-flowchart-Redis-7" transform="translate(178.5 239.962)"><path d="M0 7.37782C3.55271e-15 11.4525 11.7152 14.7556 26.1667 14.7556 40.6181 14.7556 52.3333 11.4525 52.3333 7.37782 52.3333 3.30316 40.6181 2.13362e-07 26.1667 2.13362e-07 11.7152 2.13362e-07-3.55271e-15 3.30316-7.10543e-15 7.37782L0 49.089C3.55271e-15 53.1636 11.7152 56.4668 26.1667 56.4668 40.6181 56.4668 52.3333 53.1636 52.3333 49.089L52.3333 7.37782" stroke="#9370DB" fill="#ECECFF" transform="translate(-26.1667 -28.2334)"/><g color="#333333" transform="matrix(1 0 0 1 0 -0.333335)"><rect x="0" y="0" width="0" height="0" stroke="#9370DB" fill="#ECECFF"/><g><rect x="0" y="0" width="0" height="0" fill="#ECECFF"/><text text-anchor="middle" y="-10.1"><tspan x="0" y="-0.1em" dy="1.1em"><tspan font-weight="400">Redis</tspan></tspan></text></g></g></g><g id="diagram-7-flowchart-K8sAPI-9" transform="translate(363 239.962)"><rect x="-108.333" y="-24.6667" width="216.667" height="49.3333" stroke="#9370DB" fill="#ECECFF"/><g color="#333333" transform="matrix(1 0 0 1 0 -9.66667)"><rect x="0" y="0" width="0" height="0" stroke="#9370DB" fill="#ECECFF"/><g><rect x="0" y="0" width="0" height="0" fill="#ECECFF"/><text text-anchor="middle" y="-10.1"><tspan x="0" y="-0.1em" dy="1.1em"><tspan font-weight="400">Kubernetes</tspan><tspan font-weight="400"> API</tspan><tspan font-weight="400"> Server</tspan></tspan></text></g></g></g><g id="diagram-7-flowchart-Prometheus-11" transform="translate(593.333 239.962)"><rect x="-72" y="-24.6667" width="144" height="49.3333" stroke="#9370DB" fill="#ECECFF"/><g color="#333333" transform="matrix(1 0 0 1 0 -9.66667)"><rect x="0" y="0" width="0" height="0" stroke="#9370DB" fill="#ECECFF"/><g><rect x="0" y="0" width="0" height="0" fill="#ECECFF"/><text text-anchor="middle" y="-10.1"><tspan x="0" y="-0.1em" dy="1.1em"><tspan font-weight="400">Prometheus</tspan></tspan></text></g></g></g><g id="diagram-7-flowchart-Alertmanager-13" transform="translate(875 239.962)"><rect x="-78.6667" y="-24.6667" width="157.333" height="49.3333" stroke="#9370DB" fill="#ECECFF"/><g color="#333333" transform="matrix(1 0 0 1 0 -9.66667)"><rect x="0" y="0" width="0" height="0" stroke="#9370DB" fill="#ECECFF"/><g><rect x="0" y="0" width="0" height="0" fill="#ECECFF"/><text text-anchor="middle" y="-10.1"><tspan x="0" y="-0.1em" dy="1.1em"><tspan font-weight="400">Alertmanager</tspan></tspan></text></g></g></g><g id="diagram-7-flowchart-Grafana-15" transform="translate(507 347.923)"><rect x="-58.6667" y="-24.6667" width="117.333" height="49.3333" stroke="#9370DB" fill="#ECECFF"/><g color="#333333" transform="matrix(1 0 0 1 0 -9.66667)"><rect x="0" y="0" width="0" height="0" stroke="#9370DB" fill="#ECECFF"/><g><rect x="0" y="0" width="0" height="0" fill="#ECECFF"/><text text-anchor="middle" y="-10.1"><tspan x="0" y="-0.1em" dy="1.1em"><tspan font-weight="400">Grafana</tspan></tspan></text></g></g></g><g id="diagram-7-flowchart-Exporters-17" transform="translate(679.667 347.923)"><rect x="-64" y="-24.6667" width="128" height="49.3333" stroke="#9370DB" fill="#ECECFF"/><g color="#333333" transform="matrix(1 0 0 1 0 -9.66667)"><rect x="0" y="0" width="0" height="0" stroke="#9370DB" fill="#ECECFF"/><g><rect x="0" y="0" width="0" height="0" fill="#ECECFF"/><text text-anchor="middle" y="-10.1"><tspan x="0" y="-0.1em" dy="1.1em"><tspan font-weight="400">Exporters</tspan></tspan></text></g></g></g><g id="diagram-7-flowchart-AlertService-19" transform="translate(875 347.923)"><rect x="-76" y="-24.6667" width="152" height="49.3333" stroke="#9370DB" fill="#ECECFF"/><g color="#333333" transform="matrix(1 0 0 1 0 -9.66667)"><rect x="0" y="0" width="0" height="0" stroke="#9370DB" fill="#ECECFF"/><g><rect x="0" y="0" width="0" height="0" fill="#ECECFF"/><text text-anchor="middle" y="-10.1"><tspan x="0" y="-0.1em" dy="1.1em"><tspan font-weight="400">Alert</tspan><tspan font-weight="400"> Service</tspan></tspan></text></g></g></g><g id="diagram-7-flowchart-Slack-21" transform="translate(800.667 447.257)"><rect x="-48.6667" y="-24.6667" width="97.3333" height="49.3333" stroke="#9370DB" fill="#ECECFF"/><g color="#333333" transform="matrix(1 0 0 1 0 -9.66667)"><rect x="0" y="0" width="0" height="0" stroke="#9370DB" fill="#ECECFF"/><g><rect x="0" y="0" width="0" height="0" fill="#ECECFF"/><text text-anchor="middle" y="-10.1"><tspan x="0" y="-0.1em" dy="1.1em"><tspan font-weight="400">Slack</tspan></tspan></text></g></g></g><g id="diagram-7-flowchart-Email-23" transform="translate(949.333 447.257)"><rect x="-50" y="-24.6667" width="100" height="49.3333" stroke="#9370DB" fill="#ECECFF"/><g color="#333333" transform="matrix(1 0 0 1 0 -9.66667)"><rect x="0" y="0" width="0" height="0" stroke="#9370DB" fill="#ECECFF"/><g><rect x="0" y="0" width="0" height="0" fill="#ECECFF"/><text text-anchor="middle" y="-10.1"><tspan x="0" y="-0.1em" dy="1.1em"><tspan font-weight="400">Email</tspan></tspan></text></g></g></g></g></g></g><g><text fill="#9CA3AF" font-family="Inter,-apple-system,BlinkMacSystemFont,Arial" font-size="11" text-anchor="end" opacity="0.6" x="997.333" y="469.924">SimpleMermaid.com</text></g></svg>