<svg viewBox="7.62939e-06 1.90735e-06 2418.33 823.529" xmlns="http://www.w3.org/2000/svg" xmlns:xlink="http://www.w3.org/1999/xlink" id="diagram-1" fill="#333333" font-family="trebuchet ms,verdana,arial,Arial" font-size="16" overflow="hidden"><defs><filter id="diagram-1-drop-shadow" x="-10%" y="-10%" width="130%" height="130%" filterUnits="objectBoundingBox" primitiveUnits="userSpaceOnUse"></filter></defs><defs><filter id="diagram-1-drop-shadow-small" x="-10%" y="-10%" width="150%" height="150%" filterUnits="objectBoundingBox" primitiveUnits="userSpaceOnUse"></filter></defs><g><marker refX="5" refY="5" markerWidth="8" markerHeight="8" orient="auto" viewBox="0 0 10 10" id="diagram-1_flowchart-v2-pointEnd" stroke="#333333" overflow="hidden"><path d="M0 0 10 5 0 10Z" stroke-dasharray="1 0"/></marker><marker refX="4.5" refY="5" markerWidth="8" markerHeight="8" orient="auto" viewBox="0 0 10 10" id="diagram-1_flowchart-v2-pointStart" stroke="#333333" overflow="hidden"><path d="M0 5 10 10 10 0Z" stroke-dasharray="1 0"/></marker><marker refX="11.5" refY="7" markerWidth="10.5" markerHeight="14" orient="auto" viewBox="0 0 11.5 14" id="diagram-1_flowchart-v2-pointEnd-margin" stroke="#333333" overflow="hidden"><path d="M0 0 11.5 7 0 14Z" stroke-width="0" stroke-dasharray="1 0"/></marker><marker refX="1" refY="7" markerWidth="11.5" markerHeight="14" orient="auto" viewBox="0 0 11.5 14" id="diagram-1_flowchart-v2-pointStart-margin" stroke="#333333" overflow="hidden"><path d="M0 7 11.5 14 11.5 0Z" stroke-width="0" stroke-dasharray="1 0"/></marker><marker refX="11" refY="5" markerWidth="11" markerHeight="11" orient="auto" viewBox="0 0 10 10" id="diagram-1_flowchart-v2-circleEnd" stroke="#333333" overflow="hidden"><circle cx="5" cy="5" r="5" stroke-dasharray="1 0"/></marker><marker refX="-1" refY="5" markerWidth="11" markerHeight="11" orient="auto" viewBox="0 0 10 10" id="diagram-1_flowchart-v2-circleStart" stroke="#333333" overflow="hidden"><circle cx="5" cy="5" r="5" stroke-dasharray="1 0"/></marker><marker refX="12.25" refY="5" markerWidth="14" markerHeight="14" orient="auto" viewBox="0 0 10 10" id="diagram-1_flowchart-v2-circleEnd-margin" stroke="#333333" overflow="hidden"><circle cx="5" cy="5" r="5" stroke-width="0" stroke-dasharray="1 0"/></marker><marker refX="-2" refY="5" markerWidth="14" markerHeight="14" orient="auto" viewBox="0 0 10 10" id="diagram-1_flowchart-v2-circleStart-margin" stroke="#333333" overflow="hidden"><circle cx="5" cy="5" r="5" stroke-width="0" stroke-dasharray="1 0"/></marker><marker refX="12" refY="5.2" markerWidth="11" markerHeight="11" orient="auto" viewBox="0 0 11 11" id="diagram-1_flowchart-v2-crossEnd" stroke="#333333" overflow="hidden"><path d="M1 1 10 10M10 1 1 10" stroke-width="2" stroke-dasharray="1 0"/></marker><marker refX="-1" refY="5.2" markerWidth="11" markerHeight="11" orient="auto" viewBox="0 0 11 11" id="diagram-1_flowchart-v2-crossStart" stroke="#333333" overflow="hidden"><path d="M1 1 10 10M10 1 1 10" stroke-width="2" stroke-dasharray="1 0"/></marker><marker refX="17.7" refY="7.5" markerWidth="12" markerHeight="12" orient="auto" viewBox="0 0 15 15" id="diagram-1_flowchart-v2-crossEnd-margin" stroke="#333333" overflow="hidden"><path d="M1 1 14 14M1 14 14 1" stroke-width="2.5"/></marker><marker refX="-3.5" refY="7.5" markerWidth="12" markerHeight="12" orient="auto" viewBox="0 0 15 15" id="diagram-1_flowchart-v2-crossStart-margin" stroke="#333333" overflow="hidden"><path d="M1 1 14 14M1 14 14 1" stroke-width="2.5" stroke-dasharray="1 0"/></marker><g><g></g><g><path d="M865.667 57.333 865.667 61.5C865.667 65.667 865.667 74 865.667 81.667 865.667 89.333 865.667 96.333 865.667 99.833L865.667 103.333" id="diagram-1-L_User_UI_0" stroke="#333333" stroke-dasharray="0" fill="none" marker-end="url(#diagram-1_flowchart-v2-pointEnd)"/><path d="M964.333 138.279 1077.96 145.51C1191.58 152.742 1418.83 167.204 1532.46 177.935 1646.08 188.667 1646.08 195.667 1646.08 199.167L1646.08 202.667" id="diagram-1-L_UI_API_0" stroke="#333333" stroke-dasharray="0" fill="none" marker-end="url(#diagram-1_flowchart-v2-pointEnd)"/><path d="M1538.75 234.828 1302.4 242.523C1066.06 250.219 593.361 265.609 357.014 277.643 120.667 289.677 120.667 298.354 120.667 302.693L120.667 307.031" id="diagram-1-L_API_Auth_0" stroke="#333333" stroke-dasharray="0" fill="none" marker-end="url(#diagram-1_flowchart-v2-pointEnd)"/><path d="M1753.42 239.511 1844.18 246.425C1934.94 253.34 2116.47 267.17 2207.24 278.424 2298 289.677 2298 298.354 2298 302.693L2298 307.031" id="diagram-1-L_API_K8sService_0" stroke="#333333" stroke-dasharray="0" fill="none" marker-end="url(#diagram-1_flowchart-v2-pointEnd)"/><path d="M1538.75 236.234 1375.35 243.695C1211.94 251.156 885.139 266.078 721.736 279.344 558.333 292.61 558.333 304.221 558.333 310.026L558.333 315.831" id="diagram-1-L_API_MetricsService_0" stroke="#333333" stroke-dasharray="0" fill="none" marker-end="url(#diagram-1_flowchart-v2-pointEnd)"/><path d="M1538.75 244.254 1487.88 250.378C1437 256.503 1335.25 268.751 1284.38 285.459 1233.5 302.166 1233.5 323.332 1233.5 344.498 1233.5 365.664 1233.5 386.83 1233.5 405.691 1233.5 424.551 1233.5 441.107 1233.5 457.663 1233.5 474.218 1233.5 490.774 1233.5 508.796 1233.5 526.818 1233.5 546.307 1233.5 565.796 1233.5 585.285 1233.5 604.774 1176.16 620.551 1118.83 636.329 1004.15 648.396 946.815 654.429L889.478 660.463" id="diagram-1-L_API_AlertService_0" stroke="#333333" stroke-dasharray="0" fill="none" marker-end="url(#diagram-1_flowchart-v2-pointEnd)"/><path d="M1538.75 239.619 1449.4 246.516C1360.06 253.412 1181.36 267.206 1078.06 278.892 974.763 290.578 946.859 300.155 932.906 304.944L918.954 309.733" id="diagram-1-L_API_DashboardService_0" stroke="#333333" stroke-dasharray="0" fill="none" marker-end="url(#diagram-1_flowchart-v2-pointEnd)"/><path d="M2298 377.965 2298 382.97C2298 387.975 2298 397.985 2248 409.014 2197.99 420.042 2097.98 432.089 2047.98 438.112L1997.97 444.135" id="diagram-1-L_K8sService_K8sAPI_0" stroke="#333333" stroke-dasharray="0" fill="none" marker-end="url(#diagram-1_flowchart-v2-pointEnd)"/><path d="M1885.67 482.329 1885.67 486.496C1885.67 490.663 1885.67 498.996 1885.67 508.129 1885.67 517.263 1885.67 527.196 1885.67 532.163L1885.67 537.129" id="diagram-1-L_K8sAPI_RKE2_0" stroke="#333333" stroke-dasharray="0" fill="none" marker-end="url(#diagram-1_flowchart-v2-pointEnd)"/><path d="M1767.67 586.228 1731.06 592.567C1694.44 598.906 1621.22 611.584 1576.5 621.802 1531.78 632.021 1515.56 639.779 1507.45 643.658L1499.34 647.537" id="diagram-1-L_RKE2_Pods_0" stroke="#333333" stroke-dasharray="0" fill="none" marker-end="url(#diagram-1_flowchart-v2-pointEnd)"/><path d="M1795.45 590.463 1774.85 596.096C1754.25 601.729 1713.04 612.996 1692.44 622.129 1671.83 631.263 1671.83 638.263 1671.83 641.763L1671.83 645.263" id="diagram-1-L_RKE2_Nodes_0" stroke="#333333" stroke-dasharray="0" fill="none" marker-end="url(#diagram-1_flowchart-v2-pointEnd)"/><path d="M1932.43 590.463 1943.1 596.096C1953.78 601.729 1975.14 612.996 1985.82 622.129 1996.5 631.263 1996.5 638.263 1996.5 641.763L1996.5 645.263" id="diagram-1-L_RKE2_Services_0" stroke="#333333" stroke-dasharray="0" fill="none" marker-end="url(#diagram-1_flowchart-v2-pointEnd)"/><path d="M2003.67 583.801 2047.86 590.545C2092.06 597.288 2180.44 610.775 2224.64 621.019 2268.83 631.263 2268.83 638.263 2268.83 641.763L2268.83 645.263" id="diagram-1-L_RKE2_Deployments_0" stroke="#333333" stroke-dasharray="0" fill="none" marker-end="url(#diagram-1_flowchart-v2-pointEnd)"/><path d="M1465.1 369.165 1451.23 375.637C1437.35 382.108 1409.59 395.052 1395.71 409.802 1381.83 424.551 1381.83 441.107 1381.83 457.663 1381.83 474.218 1381.83 490.774 1381.83 508.796 1381.83 526.818 1381.83 546.307 1381.83 565.796 1381.83 585.285 1381.83 604.774 1386.54 618.269 1391.25 631.765 1400.67 639.267 1405.37 643.019L1410.08 646.77" id="diagram-1-L_HealthChecker_Pods_0" stroke="#333333" stroke-dasharray="0" fill="none" marker-end="url(#diagram-1_flowchart-v2-pointEnd)"/><path d="M1631.33 366.349 1667.33 373.291C1703.33 380.232 1775.33 394.114 1814.14 404.694 1852.95 415.274 1858.57 422.552 1861.38 426.19L1864.19 429.829" id="diagram-1-L_HealthChecker_K8sAPI_0" stroke="#333333" stroke-dasharray="0" fill="none" marker-end="url(#diagram-1_flowchart-v2-pointEnd)"/><path d="M1404.67 359.326 1342.67 367.437C1280.67 375.549 1156.67 391.773 1055.82 406.127 954.983 420.482 877.3 432.969 838.458 439.212L799.616 445.455" id="diagram-1-L_HealthChecker_Prometheus_0" stroke="#333333" stroke-dasharray="0" fill="none" marker-end="url(#diagram-1_flowchart-v2-pointEnd)"/><path d="M666.635 482.329 657.002 486.496C647.368 490.663 628.101 498.996 618.467 508.129 608.833 517.263 608.833 527.196 608.833 532.163L608.833 537.129" id="diagram-1-L_Prometheus_NodeExporter_0" stroke="#333333" stroke-dasharray="0" fill="none" marker-end="url(#diagram-1_flowchart-v2-pointEnd)"/><path d="M787.32 482.329 798.072 486.496C808.824 490.663 830.329 498.996 841.081 508.129 851.833 517.263 851.833 527.196 851.833 532.163L851.833 537.129" id="diagram-1-L_Prometheus_KubeStateMetrics_0" stroke="#333333" stroke-dasharray="0" fill="none" marker-end="url(#diagram-1_flowchart-v2-pointEnd)"/><path d="M795.667 467.177 846.306 473.869C896.944 480.561 998.222 493.945 1048.86 504.137 1099.5 514.329 1099.5 521.329 1099.5 524.829L1099.5 528.329" id="diagram-1-L_Prometheus_AppMetrics_0" stroke="#333333" stroke-dasharray="0" fill="none" marker-end="url(#diagram-1_flowchart-v2-pointEnd)"/><path d="M651.667 468.683 609.583 475.124C567.5 481.565 483.333 494.447 441.25 505.855 399.167 517.263 399.167 527.196 399.167 532.163L399.167 537.129" id="diagram-1-L_Prometheus_AlertManager_0" stroke="#333333" stroke-dasharray="0" fill="none" marker-end="url(#diagram-1_flowchart-v2-pointEnd)"/><path d="M664.578 369.165 692.454 375.637C720.33 382.108 776.082 395.052 795.489 405.413 814.896 415.773 797.959 423.55 789.491 427.438L781.022 431.327" id="diagram-1-L_MetricsService_Prometheus_0" stroke="#333333" stroke-dasharray="0" fill="none" marker-end="url(#diagram-1_flowchart-v2-pointEnd)"/><path d="M399.167 590.463 399.167 596.096C399.167 601.729 399.167 612.996 438.228 623.984 477.29 634.971 555.414 645.68 594.475 651.034L633.537 656.389" id="diagram-1-L_AlertManager_AlertService_0" stroke="#333333" stroke-dasharray="0" fill="none" marker-end="url(#diagram-1_flowchart-v2-pointEnd)"/><path d="M666.558 698.596 650.521 702.763C634.483 706.929 602.408 715.263 586.371 724.396 570.333 733.529 570.333 743.463 570.333 748.429L570.333 753.396" id="diagram-1-L_AlertService_Email_0" stroke="#333333" stroke-dasharray="0" fill="none" marker-end="url(#diagram-1_flowchart-v2-pointEnd)"/><path d="M785.422 698.596 789.463 702.763C793.503 706.929 801.585 715.263 805.626 724.396 809.667 733.529 809.667 743.463 809.667 748.429L809.667 753.396" id="diagram-1-L_AlertService_Slack_0" stroke="#333333" stroke-dasharray="0" fill="none" marker-end="url(#diagram-1_flowchart-v2-pointEnd)"/><path d="M885.5 694.266 915.306 699.154C945.111 704.043 1004.72 713.819 1034.53 722.208 1064.33 730.596 1064.33 737.596 1064.33 741.096L1064.33 744.596" id="diagram-1-L_AlertService_AI_0" stroke="#333333" stroke-dasharray="0" fill="none" marker-end="url(#diagram-1_flowchart-v2-pointEnd)"/><path d="M400.667 354.521 452.833 363.433C505 372.346 609.333 390.171 662.207 402.597 715.081 415.022 716.496 422.048 717.203 425.561L717.911 429.075" id="diagram-1-L_Grafana_Prometheus_0" stroke="#333333" stroke-dasharray="0" fill="none" marker-end="url(#diagram-1_flowchart-v2-pointEnd)"/><path d="M767 141.358 696.167 148.076C625.333 154.794 483.667 168.23 412.833 183.226 342 198.222 342 214.778 342 231.333 342 247.889 342 264.444 342 278.527 342 292.61 342 304.221 342 310.026L342 315.831" id="diagram-1-L_UI_Grafana_0" stroke="#333333" stroke-dasharray="0" fill="none" marker-end="url(#diagram-1_flowchart-v2-pointEnd)"/><path d="M754.596 311.031 745.164 306.026C735.731 301.021 716.865 291.01 707.433 277.727 698 264.444 698 247.889 698 231.333 698 214.778 698 198.222 711.427 185.967 724.854 173.712 751.707 165.757 765.134 161.78L778.561 157.803" id="diagram-1-L_DashboardService_UI_0" stroke="#333333" stroke-dasharray="0" fill="none" marker-end="url(#diagram-1_flowchart-v2-pointEnd)"/><path d="M919.333 353.881 1017.06 362.9C1114.78 371.919 1310.22 389.958 1452.56 404.808 1594.9 419.659 1684.13 431.322 1728.75 437.153L1773.37 442.985" id="diagram-1-L_DashboardService_K8sAPI_0" stroke="#333333" stroke-dasharray="0" fill="none" marker-end="url(#diagram-1_flowchart-v2-pointEnd)"/><path d="M752.312 377.965 742.538 382.97C732.764 387.975 713.215 397.985 705.613 406.587 698.011 415.188 702.355 422.38 704.527 425.976L706.699 429.572" id="diagram-1-L_DashboardService_Prometheus_0" stroke="#333333" stroke-dasharray="0" fill="none" marker-end="url(#diagram-1_flowchart-v2-pointEnd)"/><path d="M1704.56 256 1714.44 260.167C1724.32 264.333 1744.08 272.667 1753.95 280.333 1763.83 288 1763.83 295 1763.83 298.5L1763.83 302" id="diagram-1-L_API_DB_0" stroke="#333333" stroke-dasharray="0" fill="none" marker-end="url(#diagram-1_flowchart-v2-pointEnd)"/><path d="M1753.42 249.078 1785.6 254.399C1817.78 259.719 1882.14 270.359 1914.32 279.953 1946.5 289.546 1946.5 298.092 1946.5 302.365L1946.5 306.638" id="diagram-1-L_API_Redis_0" stroke="#333333" stroke-dasharray="0" fill="none" marker-end="url(#diagram-1_flowchart-v2-pointEnd)"/><path d="M1753.42 243.311 1809.71 249.592C1866 255.874 1978.58 268.437 2034.88 279.174 2091.17 289.912 2091.17 298.824 2091.17 303.28L2091.17 307.736" id="diagram-1-L_API_Audit_0" stroke="#333333" stroke-dasharray="0" fill="none" marker-end="url(#diagram-1_flowchart-v2-pointEnd)"/></g><g><g><g color="#333333"><text text-anchor="middle" y="-10.1"><tspan x="0" y="-0.1em" dy="1.1em"></tspan></text></g></g><g><rect x="0" y="0" width="0" height="0"/></g><g><g color="#333333"><text text-anchor="middle" y="-10.1"><tspan x="0" y="-0.1em" dy="1.1em"></tspan></text></g></g><g><rect x="0" y="0" width="0" height="0"/></g><g><g color="#333333"><text text-anchor="middle" y="-10.1"><tspan x="0" y="-0.1em" dy="1.1em"></tspan></text></g></g><g><rect x="0" y="0" width="0" height="0"/></g><g><g color="#333333"><text text-anchor="middle" y="-10.1"><tspan x="0" y="-0.1em" dy="1.1em"></tspan></text></g></g><g><rect x="0" y="0" width="0" height="0"/></g><g><g color="#333333"><text text-anchor="middle" y="-10.1"><tspan x="0" y="-0.1em" dy="1.1em"></tspan></text></g></g><g><rect x="0" y="0" width="0" height="0"/></g><g><g color="#333333"><text text-anchor="middle" y="-10.1"><tspan x="0" y="-0.1em" dy="1.1em"></tspan></text></g></g><g><rect x="0" y="0" width="0" height="0"/></g><g><g color="#333333"><text text-anchor="middle" y="-10.1"><tspan x="0" y="-0.1em" dy="1.1em"></tspan></text></g></g><g><rect x="0" y="0" width="0" height="0"/></g><g><g color="#333333"><text text-anchor="middle" y="-10.1"><tspan x="0" y="-0.1em" dy="1.1em"></tspan></text></g></g><g><rect x="0" y="0" width="0" height="0"/></g><g><g color="#333333"><text text-anchor="middle" y="-10.1"><tspan x="0" y="-0.1em" dy="1.1em"></tspan></text></g></g><g><rect x="0" y="0" width="0" height="0"/></g><g><g color="#333333"><text text-anchor="middle" y="-10.1"><tspan x="0" y="-0.1em" dy="1.1em"></tspan></text></g></g><g><rect x="0" y="0" width="0" height="0"/></g><g><g color="#333333"><text text-anchor="middle" y="-10.1"><tspan x="0" y="-0.1em" dy="1.1em"></tspan></text></g></g><g><rect x="0" y="0" width="0" height="0"/></g><g><g color="#333333"><text text-anchor="middle" y="-10.1"><tspan x="0" y="-0.1em" dy="1.1em"></tspan></text></g></g><g><rect x="0" y="0" width="0" height="0"/></g><g><g color="#333333"><text text-anchor="middle" y="-10.1"><tspan x="0" y="-0.1em" dy="1.1em"></tspan></text></g></g><g><rect x="0" y="0" width="0" height="0"/></g><g><g color="#333333"><text text-anchor="middle" y="-10.1"><tspan x="0" y="-0.1em" dy="1.1em"></tspan></text></g></g><g><rect x="0" y="0" width="0" height="0"/></g><g><g color="#333333"><text text-anchor="middle" y="-10.1"><tspan x="0" y="-0.1em" dy="1.1em"></tspan></text></g></g><g><rect x="0" y="0" width="0" height="0"/></g><g><g color="#333333"><text text-anchor="middle" y="-10.1"><tspan x="0" y="-0.1em" dy="1.1em"></tspan></text></g></g><g><rect x="0" y="0" width="0" height="0"/></g><g><g color="#333333"><text text-anchor="middle" y="-10.1"><tspan x="0" y="-0.1em" dy="1.1em"></tspan></text></g></g><g><rect x="0" y="0" width="0" height="0"/></g><g><g color="#333333"><text text-anchor="middle" y="-10.1"><tspan x="0" y="-0.1em" dy="1.1em"></tspan></text></g></g><g><rect x="0" y="0" width="0" height="0"/></g><g><g color="#333333"><text text-anchor="middle" y="-10.1"><tspan x="0" y="-0.1em" dy="1.1em"></tspan></text></g></g><g><rect x="0" y="0" width="0" height="0"/></g><g><g color="#333333"><text text-anchor="middle" y="-10.1"><tspan x="0" y="-0.1em" dy="1.1em"></tspan></text></g></g><g><rect x="0" y="0" width="0" height="0"/></g><g><g color="#333333"><text text-anchor="middle" y="-10.1"><tspan x="0" y="-0.1em" dy="1.1em"></tspan></text></g></g><g><rect x="0" y="0" width="0" height="0"/></g><g><g color="#333333"><text text-anchor="middle" y="-10.1"><tspan x="0" y="-0.1em" dy="1.1em"></tspan></text></g></g><g><rect x="0" y="0" width="0" height="0"/></g><g><g color="#333333"><text text-anchor="middle" y="-10.1"><tspan x="0" y="-0.1em" dy="1.1em"></tspan></text></g></g><g><rect x="0" y="0" width="0" height="0"/></g><g><g color="#333333"><text text-anchor="middle" y="-10.1"><tspan x="0" y="-0.1em" dy="1.1em"></tspan></text></g></g><g><rect x="0" y="0" width="0" height="0"/></g><g><g color="#333333"><text text-anchor="middle" y="-10.1"><tspan x="0" y="-0.1em" dy="1.1em"></tspan></text></g></g><g><rect x="0" y="0" width="0" height="0"/></g><g><g color="#333333"><text text-anchor="middle" y="-10.1"><tspan x="0" y="-0.1em" dy="1.1em"></tspan></text></g></g><g><rect x="0" y="0" width="0" height="0"/></g><g><g color="#333333"><text text-anchor="middle" y="-10.1"><tspan x="0" y="-0.1em" dy="1.1em"></tspan></text></g></g><g><rect x="0" y="0" width="0" height="0"/></g><g><g color="#333333"><text text-anchor="middle" y="-10.1"><tspan x="0" y="-0.1em" dy="1.1em"></tspan></text></g></g><g><rect x="0" y="0" width="0" height="0"/></g><g><g color="#333333"><text text-anchor="middle" y="-10.1"><tspan x="0" y="-0.1em" dy="1.1em"></tspan></text></g></g><g><rect x="0" y="0" width="0" height="0"/></g><g><g color="#333333"><text text-anchor="middle" y="-10.1"><tspan x="0" y="-0.1em" dy="1.1em"></tspan></text></g></g><g><rect x="0" y="0" width="0" height="0"/></g><g><g color="#333333"><text text-anchor="middle" y="-10.1"><tspan x="0" y="-0.1em" dy="1.1em"></tspan></text></g></g><g><rect x="0" y="0" width="0" height="0"/></g><g><g color="#333333"><text text-anchor="middle" y="-10.1"><tspan x="0" y="-0.1em" dy="1.1em"></tspan></text></g></g><g><rect x="0" y="0" width="0" height="0"/></g><g><g color="#333333"><text text-anchor="middle" y="-10.1"><tspan x="0" y="-0.1em" dy="1.1em"></tspan></text></g></g><g><rect x="0" y="0" width="0" height="0"/></g></g><g><g id="diagram-1-flowchart-User-0" transform="translate(865.667 32.6667)"><rect x="-114.667" y="-24.6667" width="229.333" height="49.3333" stroke="#9370DB" fill="#ECECFF"/><g color="#333333" transform="matrix(1 0 0 1 0 -9.66667)"><rect x="0" y="0" width="0" height="0" stroke="#9370DB" fill="#ECECFF"/><g><rect x="0" y="0" width="0" height="0" fill="#ECECFF"/><text text-anchor="middle" y="-10.1"><tspan x="0" y="-0.1em" dy="1.1em"><tspan font-weight="400">User</tspan><tspan font-weight="400"> /</tspan><tspan font-weight="400"> DevOps</tspan><tspan font-weight="400"> Engineer</tspan></tspan></text></g></g></g><g id="diagram-1-flowchart-UI-1" transform="translate(865.667 132)"><rect x="-98.6667" y="-24.6667" width="197.333" height="49.3333" stroke="#9370DB" fill="#ECECFF"/><g color="#333333" transform="matrix(1 0 0 1 0 -9.66667)"><rect x="0" y="0" width="0" height="0" stroke="#9370DB" fill="#ECECFF"/><g><rect x="0" y="0" width="0" height="0" fill="#ECECFF"/><text text-anchor="middle" y="-10.1"><tspan x="0" y="-0.1em" dy="1.1em"><tspan font-weight="400">Web</tspan><tspan font-weight="400"> User</tspan><tspan font-weight="400"> Interface</tspan></tspan></text></g></g></g><g id="diagram-1-flowchart-API-3" transform="translate(1646.08 231.333)"><rect x="-107.333" y="-24.6667" width="214.667" height="49.3333" stroke="#9370DB" fill="#ECECFF"/><g color="#333333" transform="matrix(1 0 0 1 0 -9.66667)"><rect x="0" y="0" width="0" height="0" stroke="#9370DB" fill="#ECECFF"/><g><rect x="0" y="0" width="0" height="0" fill="#ECECFF"/><text text-anchor="middle" y="-10.1"><tspan x="0" y="-0.1em" dy="1.1em"><tspan font-weight="400">Backend</tspan><tspan font-weight="400"> API</tspan><tspan font-weight="400"> Gateway</tspan></tspan></text></g></g></g><g id="diagram-1-flowchart-Auth-5" transform="translate(120.667 344.498)"><rect x="-112.667" y="-33.4667" width="225.333" height="66.9333" stroke="#9370DB" fill="#ECECFF"/><g color="#333333" transform="matrix(1 0 0 1 0 -18.4667)"><rect x="0" y="0" width="0" height="0" stroke="#9370DB" fill="#ECECFF"/><g><rect x="0" y="0" width="0" height="0" fill="#ECECFF"/><text text-anchor="middle" y="-10.1"><tspan x="0" y="-0.1em" dy="1.1em"><tspan font-weight="400">Authentication</tspan><tspan font-weight="400"> &amp;</tspan><tspan font-weight="400"> RBAC</tspan></tspan><tspan x="0" y="1em" dy="1.1em"><tspan font-weight="400">Layer</tspan></tspan></text></g></g></g><g id="diagram-1-flowchart-K8sService-7" transform="translate(2298 344.498)"><rect x="-112.333" y="-33.4667" width="224.667" height="66.9333" stroke="#9370DB" fill="#ECECFF"/><g color="#333333" transform="matrix(1 0 0 1 0 -18.4667)"><rect x="0" y="0" width="0" height="0" stroke="#9370DB" fill="#ECECFF"/><g><rect x="0" y="0" width="0" height="0" fill="#ECECFF"/><text text-anchor="middle" y="-10.1"><tspan x="0" y="-0.1em" dy="1.1em"><tspan font-weight="400">Kubernetes</tspan><tspan font-weight="400"> Integration</tspan></tspan><tspan x="0" y="1em" dy="1.1em"><tspan font-weight="400">Service</tspan></tspan></text></g></g></g><g id="diagram-1-flowchart-MetricsService-9" transform="translate(558.333 344.498)"><rect x="-107.667" y="-24.6667" width="215.333" height="49.3333" stroke="#9370DB" fill="#ECECFF"/><g color="#333333" transform="matrix(1 0 0 1 0 -9.66667)"><rect x="0" y="0" width="0" height="0" stroke="#9370DB" fill="#ECECFF"/><g><rect x="0" y="0" width="0" height="0" fill="#ECECFF"/><text text-anchor="middle" y="-10.1"><tspan x="0" y="-0.1em" dy="1.1em"><tspan font-weight="400">Metrics</tspan><tspan font-weight="400"> Query</tspan><tspan font-weight="400"> Service</tspan></tspan></text></g></g></g><g id="diagram-1-flowchart-AlertService-11" transform="translate(761.5 673.929)"><rect x="-124" y="-24.6667" width="248" height="49.3333" stroke="#9370DB" fill="#ECECFF"/><g color="#333333" transform="matrix(1 0 0 1 0 -9.66667)"><rect x="0" y="0" width="0" height="0" stroke="#9370DB" fill="#ECECFF"/><g><rect x="0" y="0" width="0" height="0" fill="#ECECFF"/><text text-anchor="middle" y="-10.1"><tspan x="0" y="-0.1em" dy="1.1em"><tspan font-weight="400">Alert</tspan><tspan font-weight="400"> Management</tspan><tspan font-weight="400"> Service</tspan></tspan></text></g></g></g><g id="diagram-1-flowchart-DashboardService-13" transform="translate(817.667 344.498)"><rect x="-101.667" y="-33.4667" width="203.333" height="66.9333" stroke="#9370DB" fill="#ECECFF"/><g color="#333333" transform="matrix(1 0 0 1 0 -18.4667)"><rect x="0" y="0" width="0" height="0" stroke="#9370DB" fill="#ECECFF"/><g><rect x="0" y="0" width="0" height="0" fill="#ECECFF"/><text text-anchor="middle" y="-10.1"><tspan x="0" y="-0.1em" dy="1.1em"><tspan font-weight="400">Realtime</tspan><tspan font-weight="400"> Dashboard</tspan></tspan><tspan x="0" y="1em" dy="1.1em"><tspan font-weight="400">Service</tspan></tspan></text></g></g></g><g id="diagram-1-flowchart-K8sAPI-15" transform="translate(1885.67 457.663)"><rect x="-108.333" y="-24.6667" width="216.667" height="49.3333" stroke="#9370DB" fill="#ECECFF"/><g color="#333333" transform="matrix(1 0 0 1 0 -9.66667)"><rect x="0" y="0" width="0" height="0" stroke="#9370DB" fill="#ECECFF"/><g><rect x="0" y="0" width="0" height="0" fill="#ECECFF"/><text text-anchor="middle" y="-10.1"><tspan x="0" y="-0.1em" dy="1.1em"><tspan font-weight="400">Kubernetes</tspan><tspan font-weight="400"> API</tspan><tspan font-weight="400"> Server</tspan></tspan></text></g></g></g><g id="diagram-1-flowchart-RKE2-17" transform="translate(1885.67 565.796)"><rect x="-118" y="-24.6667" width="236" height="49.3333" stroke="#9370DB" fill="#ECECFF"/><g color="#333333" transform="matrix(1 0 0 1 0 -9.66667)"><rect x="0" y="0" width="0" height="0" stroke="#9370DB" fill="#ECECFF"/><g><rect x="0" y="0" width="0" height="0" fill="#ECECFF"/><text text-anchor="middle" y="-10.1"><tspan x="0" y="-0.1em" dy="1.1em"><tspan font-weight="400">RKE2</tspan><tspan font-weight="400"> Kubernetes</tspan><tspan font-weight="400"> Cluster</tspan></tspan></text></g></g></g><g id="diagram-1-flowchart-Pods-19" transform="translate(1444.17 673.929)"><rect x="-99" y="-24.6667" width="198" height="49.3333" stroke="#9370DB" fill="#ECECFF"/><g color="#333333" transform="matrix(1 0 0 1 0 -9.66667)"><rect x="0" y="0" width="0" height="0" stroke="#9370DB" fill="#ECECFF"/><g><rect x="0" y="0" width="0" height="0" fill="#ECECFF"/><text text-anchor="middle" y="-10.1"><tspan x="0" y="-0.1em" dy="1.1em"><tspan font-weight="400">Applications</tspan><tspan font-weight="400"> /</tspan><tspan font-weight="400"> Pods</tspan></tspan></text></g></g></g><g id="diagram-1-flowchart-Nodes-21" transform="translate(1671.83 673.929)"><rect x="-78.6667" y="-24.6667" width="157.333" height="49.3333" stroke="#9370DB" fill="#ECECFF"/><g color="#333333" transform="matrix(1 0 0 1 0 -9.66667)"><rect x="0" y="0" width="0" height="0" stroke="#9370DB" fill="#ECECFF"/><g><rect x="0" y="0" width="0" height="0" fill="#ECECFF"/><text text-anchor="middle" y="-10.1"><tspan x="0" y="-0.1em" dy="1.1em"><tspan font-weight="400">Worker</tspan><tspan font-weight="400"> Nodes</tspan></tspan></text></g></g></g><g id="diagram-1-flowchart-Services-23" transform="translate(1996.5 673.929)"><rect x="-93" y="-24.6667" width="186" height="49.3333" stroke="#9370DB" fill="#ECECFF"/><g color="#333333" transform="matrix(1 0 0 1 0 -9.66667)"><rect x="0" y="0" width="0" height="0" stroke="#9370DB" fill="#ECECFF"/><g><rect x="0" y="0" width="0" height="0" fill="#ECECFF"/><text text-anchor="middle" y="-10.1"><tspan x="0" y="-0.1em" dy="1.1em"><tspan font-weight="400">Services</tspan><tspan font-weight="400"> /</tspan><tspan font-weight="400"> Ingress</tspan></tspan></text></g></g></g><g id="diagram-1-flowchart-Deployments-25" transform="translate(2268.83 673.929)"><rect x="-129.333" y="-24.6667" width="258.667" height="49.3333" stroke="#9370DB" fill="#ECECFF"/><g color="#333333" transform="matrix(1 0 0 1 0 -9.66667)"><rect x="0" y="0" width="0" height="0" stroke="#9370DB" fill="#ECECFF"/><g><rect x="0" y="0" width="0" height="0" fill="#ECECFF"/><text text-anchor="middle" y="-10.1"><tspan x="0" y="-0.1em" dy="1.1em"><tspan font-weight="400">Deployments</tspan><tspan font-weight="400"> /</tspan><tspan font-weight="400"> StatefulSets</tspan></tspan></text></g></g></g><g id="diagram-1-flowchart-HealthChecker-26" transform="translate(1518 344.498)"><rect x="-113.333" y="-24.6667" width="226.667" height="49.3333" stroke="#9370DB" fill="#ECECFF"/><g color="#333333" transform="matrix(1 0 0 1 0 -9.66667)"><rect x="0" y="0" width="0" height="0" stroke="#9370DB" fill="#ECECFF"/><g><rect x="0" y="0" width="0" height="0" fill="#ECECFF"/><text text-anchor="middle" y="-10.1"><tspan x="0" y="-0.1em" dy="1.1em"><tspan font-weight="400">Health</tspan><tspan font-weight="400"> Checker</tspan><tspan font-weight="400"> Service</tspan></tspan></text></g></g></g><g id="diagram-1-flowchart-Prometheus-31" transform="translate(723.667 457.663)"><rect x="-72" y="-24.6667" width="144" height="49.3333" stroke="#9370DB" fill="#ECECFF"/><g color="#333333" transform="matrix(1 0 0 1 0 -9.66667)"><rect x="0" y="0" width="0" height="0" stroke="#9370DB" fill="#ECECFF"/><g><rect x="0" y="0" width="0" height="0" fill="#ECECFF"/><text text-anchor="middle" y="-10.1"><tspan x="0" y="-0.1em" dy="1.1em"><tspan font-weight="400">Prometheus</tspan></tspan></text></g></g></g><g id="diagram-1-flowchart-NodeExporter-33" transform="translate(608.833 565.796)"><rect x="-81" y="-24.6667" width="162" height="49.3333" stroke="#9370DB" fill="#ECECFF"/><g color="#333333" transform="matrix(1 0 0 1 0 -9.66667)"><rect x="0" y="0" width="0" height="0" stroke="#9370DB" fill="#ECECFF"/><g><rect x="0" y="0" width="0" height="0" fill="#ECECFF"/><text text-anchor="middle" y="-10.1"><tspan x="0" y="-0.1em" dy="1.1em"><tspan font-weight="400">Node</tspan><tspan font-weight="400"> Exporter</tspan></tspan></text></g></g></g><g id="diagram-1-flowchart-KubeStateMetrics-35" transform="translate(851.833 565.796)"><rect x="-98.6667" y="-24.6667" width="197.333" height="49.3333" stroke="#9370DB" fill="#ECECFF"/><g color="#333333" transform="matrix(1 0 0 1 0 -9.66667)"><rect x="0" y="0" width="0" height="0" stroke="#9370DB" fill="#ECECFF"/><g><rect x="0" y="0" width="0" height="0" fill="#ECECFF"/><text text-anchor="middle" y="-10.1"><tspan x="0" y="-0.1em" dy="1.1em"><tspan font-weight="400">kube-state-metrics</tspan></tspan></text></g></g></g><g id="diagram-1-flowchart-AppMetrics-37" transform="translate(1099.5 565.796)"><rect x="-99" y="-33.4667" width="198" height="66.9333" stroke="#9370DB" fill="#ECECFF"/><g color="#333333" transform="matrix(1 0 0 1 0 -18.4667)"><rect x="0" y="0" width="0" height="0" stroke="#9370DB" fill="#ECECFF"/><g><rect x="0" y="0" width="0" height="0" fill="#ECECFF"/><text text-anchor="middle" y="-10.1"><tspan x="0" y="-0.1em" dy="1.1em"><tspan font-weight="400">Application</tspan><tspan font-weight="400"> Metrics</tspan></tspan><tspan x="0" y="1em" dy="1.1em"><tspan font-weight="400">Endpoints</tspan></tspan></text></g></g></g><g id="diagram-1-flowchart-AlertManager-39" transform="translate(399.167 565.796)"><rect x="-78.6667" y="-24.6667" width="157.333" height="49.3333" stroke="#9370DB" fill="#ECECFF"/><g color="#333333" transform="matrix(1 0 0 1 0 -9.66667)"><rect x="0" y="0" width="0" height="0" stroke="#9370DB" fill="#ECECFF"/><g><rect x="0" y="0" width="0" height="0" fill="#ECECFF"/><text text-anchor="middle" y="-10.1"><tspan x="0" y="-0.1em" dy="1.1em"><tspan font-weight="400">Alertmanager</tspan></tspan></text></g></g></g><g id="diagram-1-flowchart-Email-45" transform="translate(570.333 782.063)"><rect x="-95.3333" y="-24.6667" width="190.667" height="49.3333" stroke="#9370DB" fill="#ECECFF"/><g color="#333333" transform="matrix(1 0 0 1 0 -9.66667)"><rect x="0" y="0" width="0" height="0" stroke="#9370DB" fill="#ECECFF"/><g><rect x="0" y="0" width="0" height="0" fill="#ECECFF"/><text text-anchor="middle" y="-10.1"><tspan x="0" y="-0.1em" dy="1.1em"><tspan font-weight="400">Email</tspan><tspan font-weight="400"> Notification</tspan></tspan></text></g></g></g><g id="diagram-1-flowchart-Slack-47" transform="translate(809.667 782.063)"><rect x="-94" y="-24.6667" width="188" height="49.3333" stroke="#9370DB" fill="#ECECFF"/><g color="#333333" transform="matrix(1 0 0 1 0 -9.66667)"><rect x="0" y="0" width="0" height="0" stroke="#9370DB" fill="#ECECFF"/><g><rect x="0" y="0" width="0" height="0" fill="#ECECFF"/><text text-anchor="middle" y="-10.1"><tspan x="0" y="-0.1em" dy="1.1em"><tspan font-weight="400">Slack</tspan><tspan font-weight="400"> Notification</tspan></tspan></text></g></g></g><g id="diagram-1-flowchart-AI-49" transform="translate(1064.33 782.063)"><rect x="-110.667" y="-33.4667" width="221.333" height="66.9333" stroke="#9370DB" fill="#ECECFF"/><g color="#333333" transform="matrix(1 0 0 1 0 -18.4667)"><rect x="0" y="0" width="0" height="0" stroke="#9370DB" fill="#ECECFF"/><g><rect x="0" y="0" width="0" height="0" fill="#ECECFF"/><text text-anchor="middle" y="-10.1"><tspan x="0" y="-0.1em" dy="1.1em"><tspan font-weight="400">AI</tspan><tspan font-weight="400"> Incident</tspan><tspan font-weight="400"> Summary</tspan><tspan font-weight="400"> /</tspan></tspan><tspan x="0" y="1em" dy="1.1em"><tspan font-weight="400">Recommendation</tspan></tspan></text></g></g></g><g id="diagram-1-flowchart-Grafana-50" transform="translate(342 344.498)"><rect x="-58.6667" y="-24.6667" width="117.333" height="49.3333" stroke="#9370DB" fill="#ECECFF"/><g color="#333333" transform="matrix(1 0 0 1 0 -9.66667)"><rect x="0" y="0" width="0" height="0" stroke="#9370DB" fill="#ECECFF"/><g><rect x="0" y="0" width="0" height="0" fill="#ECECFF"/><text text-anchor="middle" y="-10.1"><tspan x="0" y="-0.1em" dy="1.1em"><tspan font-weight="400">Grafana</tspan></tspan></text></g></g></g><g id="diagram-1-flowchart-DB-61" transform="translate(1763.83 344.498)"><path d="M0 14.2241C0 22.0799 36.9365 28.4483 82.5 28.4483 128.063 28.4483 165 22.0799 165 14.2241 165 6.36836 128.063 3.28853e-07 82.5 3.28853e-07 36.9365 3.28853e-07 0 6.36836 0 14.2241L0 62.7816C0 70.6374 36.9365 77.0057 82.5 77.0057 128.063 77.0057 165 70.6374 165 62.7816L165 14.2241" stroke="#9370DB" fill="#ECECFF" transform="translate(-82.5 -38.5029)"/><g color="#333333" transform="matrix(1 0 0 1 0 -0.333335)"><rect x="0" y="0" width="0" height="0" stroke="#9370DB" fill="#ECECFF"/><g><rect x="0" y="0" width="0" height="0" fill="#ECECFF"/><text text-anchor="middle" y="-10.1"><tspan x="0" y="-0.1em" dy="1.1em"><tspan font-weight="400">PostgreSQL</tspan><tspan font-weight="400"> Database</tspan></tspan></text></g></g></g><g id="diagram-1-flowchart-Redis-63" transform="translate(1946.5 344.498)"><path d="M0 11.1317C0 17.2795 22.4604 22.2633 50.1667 22.2633 77.873 22.2633 100.333 17.2795 100.333 11.1317 100.333 4.98381 77.873-3.14525e-07 50.1667-3.14525e-07 22.4604-3.14525e-07 0 4.98381 0 11.1317L0 56.5966C0 62.7445 22.4604 67.7283 50.1667 67.7283 77.873 67.7283 100.333 62.7445 100.333 56.5967L100.333 11.1317" stroke="#9370DB" fill="#ECECFF" transform="translate(-50.1667 -33.8642)"/><g color="#333333" transform="matrix(1 0 0 1 0 -0.333335)"><rect x="0" y="0" width="0" height="0" stroke="#9370DB" fill="#ECECFF"/><g><rect x="0" y="0" width="0" height="0" fill="#ECECFF"/><text text-anchor="middle" y="-10.1"><tspan x="0" y="-0.1em" dy="1.1em"><tspan font-weight="400">Redis</tspan><tspan font-weight="400"> Cache</tspan></tspan></text></g></g></g><g id="diagram-1-flowchart-Audit-65" transform="translate(2091.17 344.498)"><path d="M0 10.3972C-7.10543e-15 16.1394 19.9233 20.7944 44.5 20.7944 69.0767 20.7944 89 16.1394 89 10.3972 89 4.65498 69.0767-4.45642e-07 44.5-4.45642e-07 19.9233-4.45642e-07-7.10543e-15 4.65498 0 10.3972L0 55.1277C-7.10543e-15 60.8699 19.9233 65.5249 44.5 65.5249 69.0767 65.5249 89 60.8699 89 55.1277L89 10.3972" stroke="#9370DB" fill="#ECECFF" transform="translate(-44.5 -32.7625)"/><g color="#333333" transform="matrix(1 0 0 1 0 -0.333335)"><rect x="0" y="0" width="0" height="0" stroke="#9370DB" fill="#ECECFF"/><g><rect x="0" y="0" width="0" height="0" fill="#ECECFF"/><text text-anchor="middle" y="-10.1"><tspan x="0" y="-0.1em" dy="1.1em"><tspan font-weight="400">Audit</tspan><tspan font-weight="400"> Logs</tspan></tspan></text></g></g></g></g></g></g><g><text fill="#9CA3AF" font-family="Inter,-apple-system,BlinkMacSystemFont,Arial" font-size="11" text-anchor="end" opacity="0.6" x="2408.33" y="813.529">SimpleMermaid.com</text></g></svg>