<svg viewBox="-50 -10 1450 483" xmlns="http://www.w3.org/2000/svg" xmlns:xlink="http://www.w3.org/1999/xlink" id="diagram-5" fill="#333333" font-family="trebuchet ms,verdana,arial,Arial" font-size="16" overflow="hidden"><defs><symbol id="diagram-5-computer" overflow="hidden"><path d="M2 2 2 15 22 15 22 2 2 2ZM20 13 4 13 4 4 20 4 20 13ZM9.772 19 10.238 18 13.762 18 14.229 19 9.772 19ZM24 22 0 22 2 16 4.104 16 2.774 20 21.224 20 19.927 16 22 16 24 22ZM19 12 5 12 5 5 19 5 19 12Z" transform="scale(0.5 0.5)"/></symbol></defs><defs><symbol id="diagram-5-database" fill-rule="evenodd" clip-rule="evenodd" overflow="hidden"><path d="M12.258 0.001 12.514 0.005 12.769 0.01 13.022 0.018 13.273 0.028 13.522 0.04 13.769 0.055 14.015 0.071 14.257 0.09 14.498 0.11 14.737 0.133 14.973 0.157 15.206 0.184 15.437 0.212 15.666 0.243 15.891 0.275 16.114 0.309 16.334 0.345 16.551 0.383 16.765 0.423 16.976 0.464 17.184 0.507 17.389 0.552 17.59 0.598 17.788 0.646 17.982 0.696 18.173 0.747 18.36 0.8 18.543 0.854 18.723 0.91 18.898 0.967 19.07 1.026 19.238 1.086 19.401 1.147 19.561 1.21 19.716 1.274 19.866 1.34 19.94 1.373 20.013 1.406 20.084 1.44 20.154 1.474 20.223 1.509 20.291 1.544 20.358 1.579 20.424 1.614 20.488 1.65 20.552 1.686 20.614 1.722 20.674 1.758 20.734 1.795 20.792 1.832 20.85 1.869 20.905 1.907 20.96 1.945 21.013 1.983 21.065 2.021 21.116 2.06 21.166 2.099 21.214 2.138 21.261 2.177 21.306 2.217 21.35 2.257 21.393 2.297 21.434 2.337 21.474 2.378 21.513 2.419 21.55 2.46 21.586 2.501 21.62 2.542 21.653 2.584 21.685 2.626 21.715 2.668 21.744 2.71 21.771 2.752 21.797 2.795 21.821 2.838 21.844 2.881 21.865 2.924 21.885 2.967 21.903 3.011 21.92 3.054 21.935 3.098 21.948 3.142 21.96 3.186 21.971 3.231 21.98 3.275 21.987 3.32 21.993 3.365 21.997 3.41 21.999 3.455 22 3.5 22 20.5 21.999 20.545 21.997 20.59 21.993 20.635 21.987 20.68 21.98 20.725 21.971 20.769 21.96 20.814 21.948 20.858 21.935 20.902 21.92 20.946 21.903 20.989 21.885 21.033 21.865 21.076 21.844 21.119 21.821 21.162 21.797 21.205 21.771 21.248 21.744 21.29 21.715 21.332 21.685 21.374 21.653 21.416 21.62 21.458 21.586 21.499 21.55 21.54 21.513 21.581 21.474 21.622 21.434 21.663 21.393 21.703 21.35 21.743 21.306 21.783 21.261 21.823 21.214 21.862 21.166 21.901 21.116 21.94 21.065 21.979 21.013 22.017 20.96 22.055 20.905 22.093 20.85 22.131 20.792 22.168 20.734 22.205 20.674 22.242 20.614 22.278 20.552 22.314 20.488 22.35 20.424 22.386 20.358 22.421 20.291 22.456 20.223 22.491 20.154 22.526 20.084 22.56 20.013 22.594 19.94 22.627 19.866 22.66 19.716 22.726 19.561 22.79 19.401 22.853 19.238 22.914 19.07 22.974 18.898 23.033 18.723 23.09 18.543 23.146 18.36 23.2 18.173 23.253 17.982 23.304 17.788 23.354 17.59 23.402 17.389 23.448 17.184 23.493 16.976 23.536 16.765 23.577 16.551 23.617 16.334 23.655 16.114 23.691 15.891 23.725 15.666 23.757 15.437 23.788 15.206 23.816 14.973 23.843 14.737 23.867 14.498 23.89 14.257 23.91 14.015 23.929 13.769 23.945 13.522 23.96 13.273 23.972 13.022 23.982 12.769 23.99 12.514 23.995 12.258 23.999 12 24 11.742 23.999 11.486 23.995 11.231 23.99 10.978 23.982 10.727 23.972 10.478 23.96 10.231 23.945 9.986 23.929 9.743 23.91 9.502 23.89 9.264 23.867 9.028 23.843 8.794 23.816 8.563 23.788 8.335 23.757 8.109 23.725 7.886 23.691 7.666 23.655 7.449 23.617 7.235 23.577 7.024 23.536 6.816 23.493 6.612 23.448 6.411 23.402 6.213 23.354 6.018 23.304 5.828 23.253 5.641 23.2 5.457 23.146 5.278 23.09 5.102 23.033 4.93 22.974 4.763 22.914 4.599 22.853 4.44 22.79 4.285 22.726 4.134 22.66 4.06 22.627 3.988 22.594 3.916 22.56 3.846 22.526 3.777 22.491 3.709 22.456 3.642 22.421 3.576 22.386 3.512 22.35 3.449 22.314 3.387 22.278 3.326 22.242 3.266 22.205 3.208 22.168 3.151 22.131 3.095 22.093 3.04 22.055 2.987 22.017 2.935 21.979 2.884 21.94 2.835 21.901 2.786 21.862 2.74 21.823 2.694 21.783 2.65 21.743 2.607 21.703 2.566 21.663 2.526 21.622 2.487 21.581 2.45 21.54 2.414 21.499 2.38 21.458 2.347 21.416 2.315 21.374 2.285 21.332 2.256 21.29 2.229 21.248 2.203 21.205 2.179 21.162 2.156 21.119 2.135 21.076 2.115 21.033 2.097 20.989 2.08 20.946 2.065 20.902 2.052 20.858 2.04 20.814 2.029 20.769 2.02 20.725 2.013 20.68 2.007 20.635 2.003 20.59 2.001 20.545 2 20.5 2 3.5 2.001 3.455 2.003 3.41 2.007 3.365 2.013 3.32 2.02 3.275 2.029 3.231 2.04 3.186 2.052 3.142 2.065 3.098 2.08 3.054 2.097 3.011 2.115 2.967 2.135 2.924 2.156 2.881 2.179 2.838 2.203 2.795 2.229 2.752 2.256 2.71 2.285 2.668 2.315 2.626 2.347 2.584 2.38 2.542 2.414 2.501 2.45 2.46 2.487 2.419 2.526 2.378 2.566 2.337 2.607 2.297 2.65 2.257 2.694 2.217 2.74 2.177 2.786 2.138 2.835 2.099 2.884 2.06 2.935 2.021 2.987 1.983 3.04 1.945 3.095 1.907 3.151 1.869 3.208 1.832 3.266 1.795 3.326 1.758 3.387 1.722 3.449 1.686 3.512 1.65 3.576 1.614 3.642 1.579 3.709 1.544 3.777 1.509 3.846 1.474 3.916 1.44 3.988 1.406 4.06 1.373 4.134 1.34 4.285 1.274 4.44 1.21 4.599 1.147 4.763 1.086 4.93 1.026 5.102 0.967 5.278 0.91 5.457 0.854 5.641 0.8 5.828 0.747 6.018 0.696 6.213 0.646 6.411 0.598 6.612 0.552 6.816 0.507 7.024 0.464 7.235 0.423 7.449 0.383 7.666 0.345 7.886 0.309 8.109 0.275 8.335 0.243 8.563 0.212 8.794 0.184 9.028 0.157 9.264 0.133 9.502 0.11 9.743 0.09 9.986 0.071 10.231 0.055 10.478 0.04 10.727 0.028 10.978 0.018 11.231 0.01 11.486 0.005 11.742 0.001 12 3.64292e-17 12.258 0.001ZM3 20.5 3 20.51 3.001 20.531 3.004 20.552 3.008 20.574 3.013 20.595 3.019 20.617 3.026 20.639 3.035 20.662 3.045 20.684 3.056 20.707 3.068 20.73 3.081 20.753 3.096 20.776 3.112 20.8 3.129 20.823 3.147 20.847 3.166 20.871 3.187 20.895 3.209 20.92 3.232 20.944 3.256 20.969 3.308 21.018 3.364 21.068 3.425 21.119 3.491 21.17 3.561 21.221 3.636 21.272 3.715 21.324 3.799 21.376 3.887 21.428 3.979 21.48 4.076 21.532 4.178 21.583 4.283 21.635 4.393 21.687 4.507 21.738 4.626 21.789 4.749 21.84 4.876 21.89 5.007 21.94 5.142 21.99 5.281 22.038 5.425 22.087 5.572 22.134 5.724 22.181 5.879 22.228 6.039 22.273 6.202 22.318 6.369 22.361 6.54 22.404 6.716 22.445 6.894 22.486 7.077 22.525 7.264 22.564 7.454 22.601 7.648 22.636 7.845 22.671 8.047 22.704 8.251 22.735 8.46 22.765 8.672 22.794 8.888 22.821 9.107 22.846 9.329 22.87 9.555 22.891 9.785 22.911 10.018 22.929 10.254 22.945 10.494 22.96 10.737 22.972 10.983 22.982 11.232 22.99 11.485 22.995 11.741 22.999 12 23 12.26 22.999 12.517 22.995 12.771 22.99 13.021 22.982 13.268 22.971 13.512 22.959 13.753 22.945 13.99 22.929 14.223 22.911 14.454 22.89 14.68 22.869 14.904 22.845 15.124 22.819 15.34 22.792 15.552 22.764 15.762 22.733 15.967 22.702 16.169 22.668 16.367 22.634 16.561 22.598 16.752 22.561 16.939 22.522 17.122 22.482 17.301 22.442 17.476 22.4 17.648 22.357 17.816 22.313 17.979 22.268 18.139 22.222 18.294 22.176 18.446 22.129 18.594 22.081 18.737 22.032 18.876 21.983 19.012 21.933 19.143 21.883 19.269 21.833 19.392 21.782 19.51 21.73 19.624 21.679 19.734 21.627 19.84 21.575 19.941 21.523 20.037 21.471 20.129 21.419 20.217 21.366 20.3 21.315 20.379 21.263 20.453 21.211 20.523 21.16 20.588 21.109 20.648 21.058 20.704 21.008 20.755 20.958 20.778 20.934 20.801 20.909 20.822 20.885 20.842 20.861 20.861 20.837 20.879 20.813 20.896 20.789 20.911 20.766 20.925 20.742 20.938 20.719 20.95 20.696 20.96 20.673 20.97 20.651 20.978 20.629 20.984 20.607 20.99 20.585 20.994 20.563 20.998 20.542 20.999 20.521 21 20.5 21 16.373 20.923 16.428 20.843 16.481 20.76 16.535 20.675 16.588 20.588 16.64 20.498 16.692 20.405 16.743 20.31 16.793 20.213 16.843 20.113 16.892 20.011 16.941 19.906 16.989 19.8 17.036 19.691 17.083 19.58 17.129 19.466 17.174 19.351 17.219 19.233 17.263 19.113 17.306 18.991 17.348 18.867 17.39 18.741 17.431 18.613 17.471 18.483 17.511 18.351 17.549 18.217 17.587 18.082 17.624 17.944 17.661 17.805 17.696 17.663 17.731 17.52 17.765 17.376 17.798 17.229 17.83 17.081 17.861 16.931 17.891 16.78 17.921 16.627 17.95 16.473 17.977 16.317 18.004 16.159 18.03 16 18.055 15.839 18.079 15.677 18.102 15.514 18.124 15.349 18.145 15.183 18.165 15.016 18.184 14.847 18.202 14.678 18.219 14.507 18.235 14.334 18.25 14.161 18.264 13.986 18.277 13.811 18.289 13.634 18.3 13.456 18.31 13.277 18.318 13.098 18.326 12.917 18.332 12.735 18.337 12.553 18.341 12.369 18.344 12.185 18.346 11.815 18.346 11.631 18.344 11.447 18.341 11.265 18.337 11.083 18.332 10.902 18.326 10.723 18.318 10.544 18.31 10.366 18.3 10.19 18.289 10.014 18.277 9.839 18.264 9.666 18.25 9.494 18.235 9.323 18.219 9.153 18.202 8.984 18.184 8.817 18.165 8.651 18.145 8.486 18.124 8.323 18.102 8.161 18.079 8 18.055 7.841 18.03 7.684 18.004 7.528 17.977 7.373 17.95 7.22 17.921 7.069 17.891 6.919 17.861 6.771 17.83 6.625 17.798 6.48 17.765 6.337 17.731 6.196 17.696 6.056 17.661 5.919 17.624 5.783 17.587 5.649 17.549 5.517 17.511 5.387 17.471 5.259 17.431 5.133 17.39 5.009 17.348 4.887 17.306 4.767 17.262 4.65 17.219 4.534 17.174 4.421 17.129 4.309 17.083 4.2 17.036 4.094 16.989 3.989 16.941 3.887 16.892 3.787 16.843 3.69 16.793 3.595 16.743 3.502 16.691 3.412 16.64 3.325 16.588 3.24 16.535 3.157 16.481 3.077 16.427 3 16.373 3 20.5ZM3 14.846 3 14.857 3.001 14.878 3.004 14.899 3.008 14.92 3.013 14.942 3.019 14.964 3.026 14.986 3.035 15.008 3.045 15.03 3.056 15.053 3.068 15.076 3.081 15.099 3.096 15.123 3.112 15.146 3.129 15.17 3.147 15.194 3.166 15.218 3.187 15.242 3.209 15.266 3.232 15.291 3.256 15.315 3.308 15.365 3.364 15.415 3.425 15.465 3.491 15.516 3.561 15.567 3.636 15.619 3.715 15.67 3.799 15.722 3.887 15.774 3.979 15.826 4.076 15.878 4.178 15.93 4.283 15.982 4.393 16.033 4.507 16.084 4.626 16.136 4.749 16.186 4.876 16.237 5.007 16.287 5.142 16.336 5.281 16.385 5.425 16.433 5.572 16.481 5.724 16.528 5.879 16.574 6.039 16.619 6.202 16.664 6.369 16.708 6.54 16.75 6.716 16.792 6.894 16.832 7.077 16.872 7.264 16.91 7.454 16.947 7.648 16.983 7.845 17.017 8.047 17.05 8.251 17.082 8.46 17.112 8.672 17.14 8.888 17.167 9.107 17.192 9.329 17.216 9.555 17.238 9.785 17.258 10.018 17.276 10.254 17.292 10.494 17.306 10.737 17.318 10.983 17.328 11.232 17.336 11.485 17.342 11.741 17.345 12 17.346 12.26 17.345 12.517 17.342 12.771 17.336 13.021 17.328 13.268 17.318 13.512 17.306 13.753 17.291 13.99 17.275 14.223 17.257 14.454 17.237 14.68 17.215 14.904 17.191 15.124 17.166 15.34 17.139 15.552 17.11 15.762 17.08 15.967 17.048 16.169 17.015 16.367 16.98 16.561 16.944 16.752 16.907 16.939 16.868 17.122 16.829 17.301 16.788 17.476 16.746 17.648 16.703 17.816 16.659 17.979 16.614 18.139 16.569 18.294 16.522 18.446 16.475 18.594 16.427 18.737 16.379 18.876 16.329 19.012 16.28 19.143 16.23 19.269 16.179 19.392 16.128 19.51 16.077 19.624 16.025 19.734 15.973 19.84 15.921 19.941 15.869 20.037 15.817 20.129 15.765 20.217 15.713 20.3 15.661 20.379 15.609 20.453 15.558 20.523 15.506 20.588 15.455 20.648 15.405 20.704 15.354 20.755 15.305 20.778 15.28 20.801 15.256 20.822 15.231 20.842 15.207 20.861 15.183 20.879 15.159 20.896 15.135 20.911 15.112 20.925 15.089 20.938 15.065 20.95 15.043 20.96 15.02 20.97 14.997 20.978 14.975 20.984 14.953 20.99 14.931 20.994 14.91 20.998 14.888 20.999 14.867 21 14.846 21 10.707 20.923 10.761 20.843 10.815 20.76 10.869 20.675 10.921 20.588 10.974 20.498 11.025 20.405 11.076 20.31 11.127 20.213 11.177 20.113 11.226 20.011 11.275 19.906 11.323 19.8 11.37 19.691 11.417 19.58 11.463 19.466 11.508 19.351 11.552 19.233 11.596 19.113 11.64 18.991 11.682 18.867 11.724 18.741 11.765 18.613 11.805 18.483 11.844 18.351 11.883 18.217 11.921 18.082 11.958 17.944 11.994 17.805 12.03 17.663 12.065 17.52 12.098 17.376 12.131 17.229 12.164 17.081 12.195 16.931 12.225 16.78 12.255 16.627 12.283 16.473 12.311 16.317 12.338 16.159 12.364 16 12.389 15.839 12.413 15.677 12.436 15.514 12.458 15.349 12.479 15.183 12.499 15.016 12.518 14.847 12.536 14.678 12.553 14.507 12.569 14.334 12.584 14.161 12.598 13.986 12.611 13.811 12.623 13.634 12.634 13.456 12.643 13.277 12.652 13.098 12.659 12.917 12.666 12.735 12.671 12.553 12.675 12.369 12.678 12.185 12.68 11.815 12.68 11.631 12.678 11.447 12.675 11.265 12.671 11.083 12.666 10.902 12.659 10.723 12.652 10.544 12.643 10.366 12.634 10.19 12.623 10.014 12.611 9.839 12.598 9.666 12.584 9.494 12.569 9.323 12.553 9.153 12.536 8.984 12.518 8.817 12.499 8.651 12.479 8.486 12.458 8.323 12.436 8.161 12.413 8 12.389 7.841 12.364 7.684 12.338 7.528 12.311 7.373 12.283 7.22 12.255 7.069 12.225 6.919 12.195 6.771 12.164 6.625 12.131 6.48 12.098 6.337 12.065 6.196 12.03 6.056 11.994 5.919 11.958 5.783 11.921 5.649 11.883 5.517 11.844 5.387 11.805 5.259 11.765 5.133 11.724 5.009 11.682 4.887 11.639 4.767 11.596 4.65 11.552 4.534 11.508 4.421 11.462 4.309 11.416 4.2 11.37 4.094 11.323 3.989 11.275 3.887 11.226 3.787 11.177 3.69 11.127 3.595 11.076 3.502 11.025 3.412 10.974 3.325 10.921 3.24 10.869 3.157 10.815 3.077 10.761 3 10.707 3 14.846ZM3 9.18 3 9.191 3.001 9.211 3.004 9.233 3.008 9.254 3.013 9.276 3.019 9.297 3.026 9.319 3.035 9.342 3.045 9.364 3.056 9.387 3.068 9.41 3.081 9.433 3.096 9.456 3.112 9.48 3.129 9.504 3.147 9.527 3.166 9.551 3.187 9.576 3.209 9.6 3.232 9.624 3.256 9.649 3.308 9.699 3.364 9.749 3.425 9.799 3.491 9.85 3.561 9.901 3.636 9.953 3.715 10.004 3.799 10.056 3.887 10.108 3.979 10.16 4.076 10.212 4.178 10.264 4.283 10.315 4.393 10.367 4.507 10.418 4.626 10.469 4.749 10.52 4.876 10.57 5.007 10.62 5.142 10.67 5.281 10.719 5.425 10.767 5.572 10.815 5.724 10.862 5.879 10.908 6.039 10.953 6.202 10.998 6.369 11.041 6.54 11.084 6.716 11.126 6.894 11.166 7.077 11.206 7.264 11.244 7.454 11.281 7.648 11.317 7.845 11.351 8.047 11.384 8.251 11.416 8.46 11.446 8.672 11.474 8.888 11.501 9.107 11.526 9.329 11.55 9.555 11.571 9.785 11.591 10.018 11.609 10.254 11.626 10.494 11.64 10.737 11.652 10.983 11.662 11.232 11.67 11.485 11.676 11.741 11.679 12 11.68 12.26 11.679 12.517 11.676 12.771 11.67 13.021 11.662 13.268 11.652 13.512 11.639 13.753 11.625 13.99 11.609 14.223 11.591 14.454 11.571 14.68 11.549 14.904 11.525 15.124 11.5 15.34 11.473 15.552 11.444 15.762 11.414 15.967 11.382 16.169 11.349 16.367 11.314 16.561 11.278 16.752 11.241 16.939 11.202 17.122 11.163 17.301 11.122 17.476 11.08 17.648 11.037 17.816 10.993 17.979 10.948 18.139 10.903 18.294 10.856 18.446 10.809 18.594 10.761 18.737 10.712 18.876 10.663 19.012 10.614 19.143 10.563 19.269 10.513 19.392 10.462 19.51 10.41 19.624 10.359 19.734 10.307 19.84 10.255 19.941 10.203 20.037 10.151 20.129 10.099 20.217 10.047 20.3 9.995 20.379 9.943 20.453 9.891 20.523 9.84 20.588 9.789 20.648 9.738 20.704 9.688 20.755 9.639 20.778 9.614 20.801 9.589 20.822 9.565 20.842 9.541 20.861 9.517 20.879 9.493 20.896 9.469 20.911 9.446 20.925 9.422 20.938 9.399 20.95 9.376 20.96 9.354 20.97 9.331 20.978 9.309 20.984 9.287 20.99 9.265 20.994 9.243 20.998 9.222 20.999 9.201 21 9.18 21 5.027 20.923 5.081 20.843 5.135 20.76 5.188 20.675 5.241 20.588 5.294 20.498 5.345 20.405 5.396 20.31 5.447 20.213 5.497 20.113 5.546 20.011 5.594 19.906 5.642 19.8 5.69 19.691 5.736 19.58 5.782 19.466 5.828 19.351 5.872 19.233 5.916 19.113 5.959 18.991 6.002 18.867 6.044 18.741 6.085 18.613 6.125 18.483 6.164 18.351 6.203 18.217 6.241 18.082 6.278 17.944 6.314 17.805 6.35 17.663 6.384 17.52 6.418 17.376 6.451 17.229 6.483 17.081 6.515 16.931 6.545 16.78 6.575 16.627 6.603 16.473 6.631 16.317 6.658 16.159 6.684 16 6.708 15.839 6.732 15.677 6.755 15.514 6.778 15.349 6.799 15.183 6.819 15.016 6.838 14.847 6.856 14.678 6.873 14.507 6.889 14.334 6.904 14.161 6.918 13.986 6.931 13.811 6.943 13.634 6.953 13.456 6.963 13.277 6.972 13.098 6.979 12.917 6.985 12.735 6.991 12.553 6.995 12.369 6.998 12.185 6.999 12 7 11.815 6.999 11.631 6.998 11.447 6.995 11.265 6.991 11.083 6.985 10.902 6.979 10.723 6.972 10.544 6.963 10.366 6.953 10.19 6.943 10.014 6.931 9.839 6.918 9.666 6.904 9.494 6.889 9.323 6.873 9.153 6.856 8.984 6.838 8.817 6.819 8.651 6.799 8.486 6.778 8.323 6.755 8.161 6.732 8 6.708 7.841 6.684 7.684 6.658 7.528 6.631 7.373 6.603 7.22 6.575 7.069 6.545 6.919 6.515 6.771 6.483 6.625 6.451 6.48 6.418 6.337 6.384 6.196 6.35 6.056 6.314 5.919 6.278 5.783 6.241 5.649 6.203 5.517 6.164 5.387 6.125 5.259 6.084 5.133 6.043 5.009 6.002 4.887 5.959 4.767 5.916 4.65 5.872 4.534 5.828 4.421 5.782 4.309 5.736 4.2 5.69 4.094 5.642 3.989 5.594 3.887 5.546 3.787 5.496 3.69 5.447 3.595 5.396 3.502 5.345 3.412 5.293 3.325 5.241 3.24 5.188 3.157 5.135 3.077 5.081 3 5.027 3 9.18ZM11.74 1.001 11.483 1.005 11.229 1.01 10.979 1.018 10.732 1.029 10.488 1.041 10.247 1.055 10.01 1.071 9.777 1.089 9.546 1.11 9.32 1.132 9.096 1.155 8.876 1.181 8.66 1.208 8.448 1.236 8.238 1.267 8.033 1.299 7.831 1.332 7.633 1.366 7.439 1.402 7.248 1.44 7.061 1.478 6.878 1.518 6.699 1.559 6.524 1.601 6.352 1.644 6.184 1.687 6.021 1.732 5.861 1.778 5.706 1.824 5.554 1.872 5.406 1.92 5.263 1.968 5.124 2.017 4.988 2.067 4.857 2.117 4.731 2.168 4.608 2.219 4.49 2.27 4.376 2.322 4.266 2.374 4.16 2.426 4.059 2.478 3.963 2.53 3.871 2.582 3.783 2.634 3.7 2.686 3.621 2.738 3.547 2.789 3.477 2.841 3.412 2.892 3.352 2.942 3.296 2.992 3.245 3.042 3.222 3.067 3.199 3.091 3.178 3.115 3.158 3.14 3.139 3.164 3.121 3.188 3.104 3.211 3.089 3.235 3.075 3.258 3.062 3.281 3.05 3.304 3.04 3.327 3.03 3.349 3.022 3.371 3.016 3.394 3.01 3.415 3.006 3.437 3.002 3.458 3.001 3.479 3 3.5 3.001 3.521 3.002 3.542 3.006 3.563 3.01 3.585 3.016 3.606 3.022 3.629 3.03 3.651 3.04 3.673 3.05 3.696 3.062 3.719 3.075 3.742 3.089 3.765 3.104 3.789 3.121 3.812 3.139 3.836 3.158 3.86 3.178 3.885 3.199 3.909 3.222 3.933 3.245 3.958 3.296 4.008 3.352 4.058 3.412 4.108 3.477 4.159 3.547 4.211 3.621 4.262 3.7 4.314 3.783 4.366 3.871 4.418 3.963 4.47 4.059 4.522 4.16 4.574 4.266 4.626 4.376 4.678 4.49 4.73 4.608 4.781 4.731 4.832 4.857 4.883 4.988 4.933 5.124 4.983 5.263 5.032 5.406 5.08 5.554 5.128 5.706 5.176 5.861 5.222 6.021 5.268 6.184 5.313 6.352 5.356 6.524 5.399 6.699 5.441 6.878 5.482 7.061 5.522 7.248 5.56 7.439 5.598 7.633 5.634 7.831 5.668 8.033 5.701 8.238 5.733 8.448 5.764 8.66 5.792 8.876 5.819 9.096 5.845 9.32 5.868 9.546 5.89 9.777 5.911 10.01 5.929 10.247 5.945 10.488 5.959 10.732 5.971 10.979 5.982 11.229 5.99 11.483 5.995 11.74 5.999 12 6 12.26 5.999 12.517 5.995 12.771 5.99 13.021 5.982 13.268 5.971 13.512 5.959 13.753 5.945 13.99 5.929 14.223 5.911 14.454 5.89 14.68 5.868 14.904 5.845 15.124 5.819 15.34 5.792 15.552 5.764 15.762 5.733 15.967 5.701 16.169 5.668 16.367 5.634 16.561 5.598 16.752 5.56 16.939 5.522 17.122 5.482 17.301 5.441 17.476 5.399 17.648 5.356 17.816 5.313 17.979 5.268 18.139 5.222 18.294 5.176 18.446 5.128 18.594 5.08 18.737 5.032 18.876 4.983 19.012 4.933 19.143 4.883 19.269 4.832 19.392 4.781 19.51 4.73 19.624 4.678 19.734 4.626 19.84 4.574 19.941 4.522 20.037 4.47 20.129 4.418 20.217 4.366 20.3 4.314 20.379 4.262 20.453 4.211 20.523 4.159 20.588 4.108 20.648 4.058 20.704 4.008 20.755 3.958 20.778 3.933 20.801 3.909 20.822 3.885 20.842 3.86 20.861 3.836 20.879 3.812 20.896 3.789 20.911 3.765 20.925 3.742 20.938 3.719 20.95 3.696 20.96 3.673 20.97 3.651 20.978 3.629 20.984 3.606 20.99 3.585 20.994 3.563 20.998 3.542 20.999 3.521 21 3.5 20.999 3.479 20.998 3.458 20.994 3.437 20.99 3.415 20.984 3.394 20.978 3.371 20.97 3.349 20.96 3.327 20.95 3.304 20.938 3.281 20.925 3.258 20.911 3.235 20.896 3.211 20.879 3.188 20.861 3.164 20.842 3.14 20.822 3.115 20.801 3.091 20.778 3.067 20.755 3.042 20.704 2.992 20.648 2.942 20.588 2.892 20.523 2.841 20.453 2.789 20.379 2.738 20.3 2.686 20.217 2.634 20.129 2.582 20.037 2.53 19.941 2.478 19.84 2.426 19.734 2.374 19.624 2.322 19.51 2.27 19.392 2.219 19.269 2.168 19.143 2.117 19.012 2.067 18.876 2.017 18.737 1.968 18.594 1.92 18.446 1.872 18.294 1.824 18.139 1.778 17.979 1.732 17.816 1.687 17.648 1.644 17.476 1.601 17.301 1.559 17.122 1.518 16.939 1.478 16.752 1.44 16.561 1.402 16.367 1.366 16.169 1.332 15.967 1.299 15.762 1.267 15.552 1.236 15.34 1.208 15.124 1.181 14.904 1.155 14.68 1.132 14.454 1.11 14.223 1.089 13.99 1.071 13.753 1.055 13.512 1.041 13.268 1.029 13.021 1.018 12.771 1.01 12.517 1.005 12.26 1.001 12 1 11.74 1.001Z" transform="scale(0.5 0.5)"/></symbol></defs><defs><symbol id="diagram-5-clock" overflow="hidden"><path d="M12 2C17.514 2 22 6.486 22 12 22 17.514 17.514 22 12 22 6.486 22 2 17.514 2 12 2 6.486 6.486 2 12 2ZM12 0C5.373 0 0 5.373 0 12 0 18.627 5.373 24 12 24 18.627 24 24 18.627 24 12 24 5.373 18.627 0 12 0ZM17.848 12.459C18.05 12.497 18.05 12.792 17.849 12.831 15.942 13.192 11.804 13.942 11.302 13.942 10.583 13.942 10.001 13.36 10.001 12.641 10.001 12.129 10.771 7.194 11.126 5.196 11.16 5.004 11.438 5.015 11.469 5.21L12.454 11.448 17.848 12.459Z" transform="scale(0.5 0.5)"/></symbol></defs><defs><marker refX="7.9" refY="5" markerWidth="12" markerHeight="12" orient="auto-start-reverse" id="diagram-5-arrowhead" overflow="hidden"><path d="M-1 0 10 5 0 10Z"/></marker></defs><defs><marker refX="4" refY="4.5" markerWidth="15" markerHeight="8" markerUnits="strokeWidth" orient="auto" id="diagram-5-crosshead" overflow="hidden"><path d="M1 2 6 7M6 2 1 7" stroke="#000000" stroke-width="1.33333" stroke-dasharray="0 0" fill="none"/></marker></defs><defs><marker refX="15.5" refY="7" markerWidth="20" markerHeight="28" markerUnits="strokeWidth" orient="auto" id="diagram-5-filled-head" overflow="hidden"><path d="M18 7 9 13 14 7 9 1Z"/></marker></defs><defs><marker refX="15" refY="15" markerWidth="60" markerHeight="40" markerUnits="strokeWidth" orient="auto" id="diagram-5-sequencenumber" overflow="hidden"><circle cx="15" cy="15" r="6"/></marker></defs><defs><marker refX="7.9" refY="7.25" markerWidth="12" markerHeight="12" orient="auto-start-reverse" id="diagram-5-solidTopArrowHead" overflow="hidden"><path d="M0 0 10 8 0 8Z"/></marker></defs><defs><marker refX="7.9" refY="0.75" markerWidth="12" markerHeight="12" orient="auto-start-reverse" id="diagram-5-solidBottomArrowHead" overflow="hidden"><path d="M0 0 10 0 0 8Z"/></marker></defs><defs><marker refX="7.5" refY="7" markerWidth="12" markerHeight="12" orient="auto-start-reverse" id="diagram-5-stickTopArrowHead" overflow="hidden"><path d="M0 0 7 7" stroke="#000000" stroke-width="1.5" fill="none"/></marker></defs><defs><marker refX="7.5" markerWidth="12" markerHeight="12" orient="auto-start-reverse" id="diagram-5-stickBottomArrowHead" overflow="hidden"><path d="M0 7 7 0" stroke="#000000" stroke-width="1.5" fill="none"/></marker></defs><g><rect x="1200" y="397" rx="3" ry="3" width="150" height="65" stroke="#9370DB" fill="#ECECFF"/><text stroke="#9370DB" fill="#ECECFF" font-weight="400" font-size="16" text-anchor="middle" x="1275" y="429.5"><tspan stroke="none" fill="#000000" x="1275" dy="0">UI</tspan></text></g><g><rect x="1000" y="397" rx="3" ry="3" width="150" height="65" stroke="#9370DB" fill="#ECECFF"/><text stroke="#9370DB" fill="#ECECFF" font-weight="400" font-size="16" text-anchor="middle" x="1075" y="429.5"><tspan stroke="none" fill="#000000" x="1075" dy="0">AI</tspan></text></g><g><rect x="800" y="397" rx="3" ry="3" width="150" height="65" stroke="#9370DB" fill="#ECECFF"/><text stroke="#9370DB" fill="#ECECFF" font-weight="400" font-size="16" text-anchor="middle" x="875" y="429.5"><tspan stroke="none" fill="#000000" x="875" dy="0">Email</tspan></text></g><g><rect x="600" y="397" rx="3" ry="3" width="150" height="65" stroke="#9370DB" fill="#ECECFF"/><text stroke="#9370DB" fill="#ECECFF" font-weight="400" font-size="16" text-anchor="middle" x="675" y="429.5"><tspan stroke="none" fill="#000000" x="675" dy="0">Slack</tspan></text></g><g><rect x="400" y="397" rx="3" ry="3" width="150" height="65" stroke="#9370DB" fill="#ECECFF"/><text stroke="#9370DB" fill="#ECECFF" font-weight="400" font-size="16" text-anchor="middle" x="475" y="429.5"><tspan stroke="none" fill="#000000" x="475" dy="0">AlertService</tspan></text></g><g><rect x="200" y="397" rx="3" ry="3" width="150" height="65" stroke="#9370DB" fill="#ECECFF"/><text stroke="#9370DB" fill="#ECECFF" font-weight="400" font-size="16" text-anchor="middle" x="275" y="429.5"><tspan stroke="none" fill="#000000" x="275" dy="0">Alertmanager</tspan></text></g><g><rect x="0" y="397" rx="3" ry="3" width="150" height="65" stroke="#9370DB" fill="#ECECFF"/><text stroke="#9370DB" fill="#ECECFF" font-weight="400" font-size="16" text-anchor="middle" x="75" y="429.5"><tspan stroke="none" fill="#000000" x="75" dy="0">Prometheus</tspan></text></g><g><line x1="1275" y1="65" x2="1275" y2="397" id="actor11" stroke="#9370DB" stroke-width="2" fill="#ECECFF"/><g id="root-11"><rect x="1200" y="0" rx="3" ry="3" width="150" height="65" stroke="#9370DB" fill="#ECECFF"/><text stroke="#9370DB" fill="#ECECFF" font-weight="400" font-size="16" text-anchor="middle" x="1275" y="32.5"><tspan stroke="none" fill="#000000" x="1275" dy="0">UI</tspan></text></g></g><g><line x1="1075" y1="65" x2="1075" y2="397" id="actor10" stroke="#9370DB" stroke-width="2" fill="#ECECFF"/><g id="root-10"><rect x="1000" y="0" rx="3" ry="3" width="150" height="65" stroke="#9370DB" fill="#ECECFF"/><text stroke="#9370DB" fill="#ECECFF" font-weight="400" font-size="16" text-anchor="middle" x="1075" y="32.5"><tspan stroke="none" fill="#000000" x="1075" dy="0">AI</tspan></text></g></g><g><line x1="875" y1="65" x2="875" y2="397" id="actor9" stroke="#9370DB" stroke-width="2" fill="#ECECFF"/><g id="root-9"><rect x="800" y="0" rx="3" ry="3" width="150" height="65" stroke="#9370DB" fill="#ECECFF"/><text stroke="#9370DB" fill="#ECECFF" font-weight="400" font-size="16" text-anchor="middle" x="875" y="32.5"><tspan stroke="none" fill="#000000" x="875" dy="0">Email</tspan></text></g></g><g><line x1="675" y1="65" x2="675" y2="397" id="actor8" stroke="#9370DB" stroke-width="2" fill="#ECECFF"/><g id="root-8"><rect x="600" y="0" rx="3" ry="3" width="150" height="65" stroke="#9370DB" fill="#ECECFF"/><text stroke="#9370DB" fill="#ECECFF" font-weight="400" font-size="16" text-anchor="middle" x="675" y="32.5"><tspan stroke="none" fill="#000000" x="675" dy="0">Slack</tspan></text></g></g><g><line x1="475" y1="65" x2="475" y2="397" id="actor7" stroke="#9370DB" stroke-width="2" fill="#ECECFF"/><g id="root-7"><rect x="400" y="0" rx="3" ry="3" width="150" height="65" stroke="#9370DB" fill="#ECECFF"/><text stroke="#9370DB" fill="#ECECFF" font-weight="400" font-size="16" text-anchor="middle" x="475" y="32.5"><tspan stroke="none" fill="#000000" x="475" dy="0">AlertService</tspan></text></g></g><g><line x1="275" y1="65" x2="275" y2="397" id="actor6" stroke="#9370DB" stroke-width="2" fill="#ECECFF"/><g id="root-6"><rect x="200" y="0" rx="3" ry="3" width="150" height="65" stroke="#9370DB" fill="#ECECFF"/><text stroke="#9370DB" fill="#ECECFF" font-weight="400" font-size="16" text-anchor="middle" x="275" y="32.5"><tspan stroke="none" fill="#000000" x="275" dy="0">Alertmanager</tspan></text></g></g><g><line x1="75" y1="65" x2="75" y2="397" id="actor5" stroke="#9370DB" stroke-width="2" fill="#ECECFF"/><g id="root-5"><rect x="0" y="0" rx="3" ry="3" width="150" height="65" stroke="#9370DB" fill="#ECECFF"/><text stroke="#9370DB" fill="#ECECFF" font-weight="400" font-size="16" text-anchor="middle" x="75" y="32.5"><tspan stroke="none" fill="#000000" x="75" dy="0">Prometheus</tspan></text></g></g><g></g><text font-weight="400" font-size="16" text-anchor="middle" x="174" y="80" dy="1em">Rule triggered</text><line x1="76" y1="117" x2="271" y2="117" stroke="#333333" stroke-width="1.5" fill="none" marker-end="url(#diagram-5-arrowhead)"/><text font-weight="400" font-size="16" text-anchor="middle" x="374" y="132" dy="1em">Webhook alert</text><line x1="276" y1="169" x2="471" y2="169" stroke="#333333" stroke-width="1.5" fill="none" marker-end="url(#diagram-5-arrowhead)"/><text font-weight="400" font-size="16" text-anchor="middle" x="774" y="184" dy="1em">Generate incident summary</text><line x1="476" y1="221" x2="1071" y2="221" stroke="#333333" stroke-width="1.5" fill="none" marker-end="url(#diagram-5-arrowhead)"/><text font-weight="400" font-size="16" text-anchor="middle" x="574" y="236" dy="1em">Send Slack alert</text><line x1="476" y1="273" x2="671" y2="273" stroke="#333333" stroke-width="1.5" fill="none" marker-end="url(#diagram-5-arrowhead)"/><text font-weight="400" font-size="16" text-anchor="middle" x="674" y="288" dy="1em">Send email alert</text><line x1="476" y1="325" x2="871" y2="325" stroke="#333333" stroke-width="1.5" fill="none" marker-end="url(#diagram-5-arrowhead)"/><text font-weight="400" font-size="16" text-anchor="middle" x="874" y="340" dy="1em">Update active alert dashboard</text><line x1="476" y1="377" x2="1271" y2="377" stroke="#333333" stroke-width="1.5" fill="none" marker-end="url(#diagram-5-arrowhead)"/><g><text fill="#9CA3AF" font-family="Inter,-apple-system,BlinkMacSystemFont,Arial" font-size="11" text-anchor="end" opacity="0.6" x="1440" y="473">SimpleMermaid.com</text></g></svg>